<svg xmlns="http://www.w3.org/2000/svg" style="display: none;"><symbol id="facebook-logo-in-circular-button-outlined-social-symbol" viewBox="0 0 612 612"><title>facebook-logo-in-circular-button-outlined-social-symbol</title><path d="M612,306C612,137.004,474.995,0,306,0C137.004,0,0,137.004,0,306c0,168.995,137.004,306,306,306 C474.995,612,612,474.995,612,306z M27.818,306C27.818,152.36,152.36,27.818,306,27.818S584.182,152.36,584.182,306 S459.64,584.182,306,584.182S27.818,459.64,27.818,306z"/><path d="M317.739,482.617V306h58.279l9.208-58.529h-67.487v-29.348c0-15.272,5.007-29.849,26.928-29.849h43.813v-58.418h-62.201 c-52.298,0-66.569,34.438-66.569,82.175v35.413h-35.885V306h35.885v176.617H317.739L317.739,482.617z"/></symbol><symbol id="twitter-circular-button" viewBox="0 0 612 612"><title>twitter-circular-button</title><path d="M437.219,245.162c0-3.088-0.056-6.148-0.195-9.18c13.214-9.848,24.675-22.171,33.744-36.275 c-12.129,5.453-25.148,9.097-38.835,10.626c13.965-8.596,24.675-22.338,29.738-38.834c-13.075,7.928-27.54,13.603-42.924,16.552 c-12.323-14.021-29.904-22.95-49.35-23.284c-37.332-0.612-67.598,30.934-67.598,70.463c0,5.619,0.584,11.072,1.752,16.329 c-56.22-3.616-106.042-32.881-139.369-77c-5.814,10.571-9.152,22.922-9.152,36.164c0,25.037,11.934,47.291,30.071,60.421 c-11.099-0.5-21.503-3.866-30.627-9.375c0,0.306,0,0.612,0,0.918c0,34.996,23.312,64.316,54.245,71.159 c-5.675,1.613-11.656,2.448-17.804,2.421c-4.367-0.028-8.596-0.501-12.713-1.392c8.596,28.681,33.577,49.628,63.147,50.323 c-23.145,19.194-52.298,30.655-83.955,30.572c-5.453,0-10.849-0.361-16.135-1.029c29.933,20.53,65.456,32.491,103.65,32.491 C369.23,447.261,437.219,339.048,437.219,245.162z"/><path d="M612,306C612,137.004,474.995,0,306,0C137.004,0,0,137.004,0,306c0,168.995,137.004,306,306,306 C474.995,612,612,474.995,612,306z M27.818,306C27.818,152.36,152.36,27.818,306,27.818S584.182,152.36,584.182,306 S459.64,584.182,306,584.182S27.818,459.64,27.818,306z"/></symbol><symbol id="social-linkedin-circular-button" viewBox="0 0 512 512"><title>social-linkedin-circular-button</title><path d="M256,0C114.609,0,0,114.609,0,256c0,141.391,114.609,256,256,256c141.391,0,256-114.609,256-256 C512,114.609,397.391,0,256,0z M256,472c-119.297,0-216-96.703-216-216S136.703,40,256,40s216,96.703,216,216S375.297,472,256,472z "/><g> <g> <path d="M128.094,383.891h48v-192h-48V383.891z M320.094,191.891c-41.094,0.688-61.312,30.641-64,32v-32h-48v192h48v-112 c0-4.108,10.125-37,48-32c20.344,1.328,31.312,28.234,32,32v112l47.812,0.219V251.188 C382.219,232,372.625,192.578,320.094,191.891z M152.094,127.891c-13.25,0-24,10.734-24,24s10.75,24,24,24s24-10.734,24-24 S165.344,127.891,152.094,127.891z"/> </g> </g></symbol><symbol id="instagram" viewBox="0 0 314.652 314.652"><title>instagram</title><path d="M157.326,0C70.576,0,0,70.576,0,157.326s70.576,157.326,157.326,157.326s157.326-70.576,157.326-157.326 S244.076,0,157.326,0z M157.326,296.652C80.502,296.652,18,234.15,18,157.326S80.502,18,157.326,18s139.326,62.502,139.326,139.326 S234.15,296.652,157.326,296.652z"/><path d="M214.618,80.326H100.034c-10.477,0-19,8.523-19,19v116c0,10.477,8.523,19,19,19h114.584c10.477,0,19-8.523,19-19v-116 C233.618,88.85,225.095,80.326,214.618,80.326z M215.618,215.326c0,0.552-0.448,1-1,1H100.034c-0.552,0-1-0.448-1-1v-116 c0-0.552,0.448-1,1-1h114.584c0.552,0,1,0.448,1,1V215.326z"/><rect x="183.583" y="111.812" width="20.615" height="18.911"/><circle cx="157.326" cy="164.946" r="20.324"/><path d="M189.745,164.856c0,17.904-14.514,32.418-32.418,32.418s-32.418-14.514-32.418-32.418l0.044-14.445h-14.497v53.761h93.743 v-53.761H189.82L189.745,164.856z"/></symbol></svg>