<svg xmlns="http://www.w3.org/2000/svg" xmlns:xlink="http://www.w3.org/1999/xlink" width="612" height="9852" viewBox="0 0 612 9852"><svg viewBox="0 0 512 512" width="512" height="512" id="assistant" y="0"><circle cx="256" cy="256" r="256" fill="#474f70"/><path d="M96.389 109.615c-17.968 19.591-31.65 41.587-41.085 64.846C30.8 234.76 34.784 303.547 66.351 360.712c11.046 20.01 25.479 38.593 43.252 54.895 24.353 22.337 52.449 38.048 82.047 47.241 77.536 24.057 165.435 3.336 223.945-60.456 21.893-23.87 37.436-51.326 46.699-80.268 24.926-77.965 4.373-166.78-59.903-225.735-30.772-28.225-67.5-45.876-105.722-53.137-71.247-13.558-147.658 8.99-200.28 66.363z" fill="#55ceed"/><g fill="#fcc72e"><path d="M66.351 360.712c11.046 20.01 25.479 38.593 43.252 54.895 24.353 22.337 52.449 38.048 82.047 47.241 8.159-36.803 23.328-96.08 66.654-114.804 55.754-24.093 91.98 94.56 157.292 54.348 21.893-23.87 37.436-51.326 46.699-80.268-1.861-20.851-12.573-39.347-27.586-49.851 0 0-55.014-54.418-104.405-26.469s-55.411 79.84-94.667 79.47-46.768-54.775-98.22-26.737c-29.874 16.273-55.132 42.797-71.066 62.175zM296.666 43.253s-.534 3.811-1.623 9.81c-3.873 21.231-14.751 69.829-33.9 73.882-24.55 5.193-38.883-39.627-78.677-28.612a42.66 42.66 0 0 0-8.574 3.371c-11.684 6.145-18.007 16.876-22.614 28.361a.08.08 0 0 0-.021.042c-6.292 15.725-9.401 32.853-18.719 41.594l-.042.042a20.95 20.95 0 0 1-4.543 3.287c-13.61 7.244-47.184 3.654-72.647-.565 9.432-23.263 23.116-45.259 41.081-64.846 52.621-57.374 129.035-79.925 200.279-66.366z"/></g><path d="M296.669 43.253c38.221 7.261 74.949 24.912 105.722 53.137-23.436-21.496-51.409-34.939-80.518-40.469-54.262-10.327-112.456 6.846-152.533 50.542-13.685 14.92-24.105 31.673-31.291 49.387-18.661 45.923-15.627 98.311 8.415 141.848 8.412 15.24 19.405 29.393 32.94 41.808 18.548 17.012 39.944 28.977 62.487 35.979 59.051 18.322 125.995 2.541 170.557-46.043 16.673-18.179 28.511-39.091 35.565-61.132 18.984-59.378 3.33-127.02-45.622-171.919 64.276 58.954 84.83 147.769 59.903 225.735-9.262 28.942-24.805 56.398-46.699 80.268-58.51 63.792-146.41 84.513-223.945 60.456-29.6-9.192-57.694-24.903-82.047-47.241-17.774-16.301-32.206-34.885-43.251-54.895-31.568-57.165-35.551-125.952-11.049-186.251 9.435-23.259 23.117-45.256 41.085-64.846 52.623-57.375 129.034-79.923 200.281-66.364z" fill="#17a3bf"/><path d="M296.669 43.253c38.221 7.261 74.949 24.912 105.722 53.137-23.436-21.496-51.409-34.939-80.518-40.469-54.262-10.327-112.456 6.846-152.533 50.542-13.685 14.92-24.105 31.673-31.291 49.387-18.661 45.923-15.627 98.311 8.415 141.848 8.412 15.24 19.405 29.393 32.94 41.808 18.548 17.012 39.944 28.977 62.487 35.979 59.051 18.322 125.995 2.541 170.557-46.043 16.673-18.179 28.511-39.091 35.565-61.132 18.984-59.378 3.33-127.02-45.622-171.919 64.276 58.954 84.83 147.769 59.903 225.735-9.262 28.942-24.805 56.398-46.699 80.268-58.51 63.792-146.41 84.513-223.945 60.456-29.6-9.192-57.694-24.903-82.047-47.241-17.774-16.301-32.206-34.885-43.251-54.895-31.568-57.165-35.551-125.952-11.049-186.251 9.435-23.259 23.117-45.256 41.085-64.846 52.623-57.375 129.034-79.923 200.281-66.364z" fill="#17a3bf"/><g fill="#f9ac28"><path d="M462.296 322.118c-1.462-16.368-8.382-31.284-18.561-42.026-7.2 17.695-17.616 34.44-31.286 49.345-22.938 25.009-51.805 41.324-82.47 48.778 25.221 22.751 51.435 45.217 85.62 24.177 21.888-23.874 37.437-51.329 46.697-80.274zM146.462 297.698a146.718 146.718 0 0 1-1.515-2.816c-2.398 1.004-4.913 2.224-7.534 3.647-29.875 16.275-55.126 42.798-71.066 62.182 11.05 20.009 25.486 38.593 43.26 54.897 24.353 22.337 52.446 38.048 82.047 47.238 5.956-26.853 15.638-65.688 37.283-91.981-17.77-7.208-34.578-17.641-49.537-31.362-13.529-12.411-24.525-26.565-32.938-41.805zM296.666 43.253s-.534 3.811-1.623 9.81c-43.939-1.099-88.067 15.285-121.151 48.64-11.684 6.145-18.007 16.876-22.614 28.361a.08.08 0 0 0-.021.042 162.358 162.358 0 0 0-13.201 25.744 164.22 164.22 0 0 0-5.517 15.851l-.042.042a20.95 20.95 0 0 1-4.543 3.287c-13.61 7.244-47.184 3.654-72.647-.565 9.432-23.263 23.116-45.259 41.081-64.846 52.62-57.374 129.034-79.925 200.278-66.366z"/></g><g fill="#21abd9"><circle cx="356.028" cy="168.626" r="37.689"/><circle cx="417.27" cy="212.741" r="19.237"/></g><path d="M193.449 76.794c0 16.224-5.497 31.155-14.727 43.052a70.892 70.892 0 0 1-12.507 12.516c-11.897 9.238-26.844 14.735-43.076 14.735s-31.17-5.497-43.068-14.735c-16.573-12.856-27.234-32.968-27.234-55.567 0-38.832 31.471-70.31 70.303-70.31.724 0 1.44.008 2.156.041 37.837 1.128 68.153 32.16 68.153 70.268z" fill="#ff4f6f"/><path d="M159.635 54.039c0-20.15-16.334-36.484-36.484-36.484h-.009c-3.903 0-7.661.612-11.186 1.748h-.001C97.279 24.026 86.66 37.792 86.66 54.039v73.459l2.621-1.38v8.035h64.686v-11.018l5.668 2.678V54.039z" fill="#474f70"/><path d="M166.646 126.798c0 1.894-.146 3.749-.43 5.562-11.897 9.238-26.844 14.735-43.076 14.735s-31.17-5.497-43.068-14.735a35.906 35.906 0 0 1-.432-5.562c0-1.399.391-2.732 1.098-3.871a7.362 7.362 0 0 1 2.952-2.732l2.969-1.505.219-.114a80.409 80.409 0 0 1 23.257-7.612 80.804 80.804 0 0 1 13.004-1.057 80.108 80.108 0 0 1 18.647 2.196 79.871 79.871 0 0 1 17.622 6.473l.228.114 2.96 1.505a7.395 7.395 0 0 1 4.05 6.603z" fill="#ededed"/><path d="M137.037 98.5v13.658c0 7.429-6.023 13.452-13.452 13.452s-13.452-6.023-13.452-13.452V98.5h26.904z" fill="#eab689"/><path d="M134.343 60.379c-10.763-.701-18.602-5.129-23.682-9.27l-.01.054v.001c-.16.862-2.354 11.259-14.687 13.631v15.028c0 16.542 12.169 29.952 27.18 29.952s27.18-13.41 27.18-29.952v-9.612c-2.107-5.069-6.598-9.22-15.981-9.832z" fill="#fecd9c"/><path d="M109.718 79.823V54.082c-1.488 3.504-5.154 9.059-13.756 10.713v15.028c0 16.542 12.169 29.952 27.18 29.952a24.87 24.87 0 0 0 6.878-.97c-11.679-3.357-20.302-15.059-20.302-28.982z" fill="#eab689"/><g fill="#ededed"><path d="M123.143 184.249L99.565 139.79l23.578-5.637 23.577 5.637zM466.087 278.12c0 20.328-9.015 38.559-23.268 50.899-11.8 10.221-27.192 16.398-44.03 16.398-16.105 0-30.883-5.657-42.47-15.091-15.152-12.34-24.827-31.143-24.827-52.205 0-37.166 30.131-67.297 67.297-67.297s67.298 30.129 67.298 67.296z"/></g><path d="M443.252 323.396c0 1.912-.146 3.791-.433 5.624-11.8 10.221-27.192 16.398-44.03 16.398-16.105 0-30.883-5.657-42.47-15.091a35.974 35.974 0 0 1-.667-6.93c0-1.406.393-2.745 1.105-3.897a7.408 7.408 0 0 1 2.978-2.745l11.021-5.596a60.738 60.738 0 0 1 15.152-5.317 58.684 58.684 0 0 1 4.691-.787l5.158-.667 3.698-.473 2.672.347.993.126.027.006 5.158.659c1.579.2 3.138.46 4.691.787a60.748 60.748 0 0 1 15.152 5.317l11.027 5.596a7.45 7.45 0 0 1 4.077 6.643z" fill="#474f70"/><path d="M412.997 291.723v14.548c0 7.479-6.064 13.543-13.543 13.543-7.479 0-13.543-6.064-13.543-13.543v-14.548h27.086z" fill="#eab689"/><path d="M429.609 244.03l-60.309-3.211v33.64c0 16.654 13.501 30.155 30.155 30.155 16.654 0 30.155-13.501 30.155-30.155l-.001-30.429z" fill="#fecd9c"/><path d="M387.002 274.46v-32.698l-17.703-.942v33.64c0 16.654 13.501 30.155 30.155 30.155 3.08 0 6.052-.465 8.851-1.323-12.334-3.782-21.303-15.259-21.303-28.832z" fill="#eab689"/><path d="M433.277 242.903v15.191a4.457 4.457 0 0 1-1.308 3.162 4.454 4.454 0 0 1-3.264 1.308c-2.445-.055-4.37-2.116-4.37-4.561v-2.297a6.566 6.566 0 0 0-1.929-4.657 6.564 6.564 0 0 0-4.657-1.929c-2.838 0-5.599.953-7.811 2.732a16.67 16.67 0 0 1-10.484 3.69 16.663 16.663 0 0 1-10.483-3.69 11.998 11.998 0 0 0-1.201-.851 12.394 12.394 0 0 0-2.47-1.182 12.62 12.62 0 0 0-4.143-.699 6.588 6.588 0 0 0-6.583 6.589v2.386a4.452 4.452 0 0 1-1.31 3.162 4.47 4.47 0 0 1-7.632-3.164v-15.191c0-13.301 10.781-24.084 24.082-24.084h19.48c13.301.001 24.083 10.785 24.083 24.085z" fill="#474f70"/><path d="M376.429 242.903c0-13.301 10.781-24.084 24.083-24.084h-10.797c-13.301 0-24.082 10.782-24.082 24.084v15.191a4.47 4.47 0 0 0 7.632 3.164 4.455 4.455 0 0 0 1.31-3.161v-2.386c0-1.779.708-3.392 1.855-4.578v-8.231h-.001z" fill="#323b5b"/><g fill="#474f70"><path d="M438.426 266.941h-4.18v-27.923c0-16.48-13.407-29.887-29.887-29.887h-9.81c-16.48 0-29.888 13.407-29.888 29.887v27.923h-4.18v-27.923c0-18.785 15.283-34.067 34.068-34.067h9.81c18.785 0 34.067 15.282 34.067 34.067v27.923zM426.843 292.033h-13.845v-4.18h13.845a4.84 4.84 0 0 0 4.835-4.835v-6.31h4.18v6.31c-.001 4.972-4.045 9.015-9.015 9.015z"/></g><g fill="#55ceed"><path d="M433.966 252.327a4.357 4.357 0 0 0-4.357 4.357v20.513a4.357 4.357 0 0 0 4.357 4.357 8.858 8.858 0 0 0 8.858-8.858v-11.513c0-4.89-3.966-8.856-8.858-8.856zM364.942 252.327a4.357 4.357 0 0 1 4.357 4.357v20.513a4.357 4.357 0 0 1-4.357 4.357 8.858 8.858 0 0 1-8.858-8.858v-11.513c.002-4.89 3.967-8.856 8.858-8.856z"/><circle cx="410.906" cy="290.471" r="4.702"/></g><path fill="#474f70" d="M398.789 379.642l-23.577-44.459 23.577-5.928 23.579 5.928z"/></svg><svg viewBox="0 0 426.667 426.667" width="426.667" height="426.667" id="checked" y="512"><path d="M213.333 0C95.518 0 0 95.514 0 213.333s95.518 213.333 213.333 213.333c117.828 0 213.333-95.514 213.333-213.333S331.157 0 213.333 0zm-39.134 322.918l-93.935-93.931 31.309-31.309 62.626 62.622 140.894-140.898 31.309 31.309-172.203 172.207z" fill="#6ac259"/></svg><svg width="122" height="122" viewBox="0 0 122 122" id="community" y="939"><defs><linearGradient id="a" x1=".5" y1="1" x2=".5" gradientUnits="objectBoundingBox"><stop offset="0" stop-color="#fc5b5b"/><stop offset="1" stop-color="#fba830"/></linearGradient></defs><path d="M62 32.484a9.839 9.839 0 1 0-9.839-9.839A9.85 9.85 0 0 0 62 32.484zm0-15.742a5.9 5.9 0 1 1-5.9 5.9 5.91 5.91 0 0 1 5.9-5.9zm61 27.548c0-3.713-2.1-7.318-6.059-10.5a5.885 5.885 0 0 0-9.811-5.565 97.924 97.924 0 0 0-23.485-6.045v-4.497l-3.6-2.509.775-4.323L73.8 3.83l-4.325.77L66.963 1h-9.928l-2.508 3.6-4.327-.77-7.017 7.021.775 4.323-3.607 2.509v4.5a97.831 97.831 0 0 0-23.481 6.041 5.887 5.887 0 0 0-9.97 4.26 5.929 5.929 0 0 0 .155 1.3C3.1 36.972 1 40.579 1 44.29c0 5.76 4.752 10.97 13.762 15.158a21.516 21.516 0 0 0-3.924 12.391V86.39a11.267 11.267 0 0 1-5.028 9.392l-2 1.332 1.7 1.7a45.444 45.444 0 0 0 4.233 3.63A16.647 16.647 0 0 0 1 117.1v1.968h29.662a16.687 16.687 0 0 0-.146 1.968V123h62.968v-1.968a16.686 16.686 0 0 0-.146-1.968H123V117.1a16.645 16.645 0 0 0-8.745-14.656 45.138 45.138 0 0 0 4.233-3.63l1.7-1.7-2-1.332a11.272 11.272 0 0 1-5.026-9.392V71.839a21.506 21.506 0 0 0-3.922-12.387c9.012-4.19 13.76-9.406 13.76-15.162zm-11.806-13.774a1.968 1.968 0 1 1-1.968 1.968 1.97 1.97 0 0 1 1.968-1.968zM44.29 19.737l3.989-2.776-.86-4.784 4.113-4.111 4.786.858 2.775-3.989h5.815l2.775 3.989 4.786-.858 4.113 4.111-.86 4.784 3.991 2.776v5.815l-3.989 2.776.86 4.784-4.113 4.111-4.786-.858-2.775 3.991h-5.816l-2.775-3.989-4.786.858-4.113-4.111.86-4.784-3.99-2.777zm29.818 43.115a17.534 17.534 0 0 1 5.6 12.922v6.24a7.633 7.633 0 0 1-3.843 6.619l-1.155.659a19.245 19.245 0 0 0 1.063-6.287v-9.2H71.5a11.547 11.547 0 0 1-8.109-3.359L62 69.056l-1.391 1.391a11.547 11.547 0 0 1-8.109 3.359h-4.274v9.2a19.2 19.2 0 0 0 1.063 6.287l-1.153-.659a7.637 7.637 0 0 1-3.845-6.621v-5.564c0-9.687 7.259-17.747 16.525-18.345a17.585 17.585 0 0 1 13.292 4.748zm24 36.86a7.823 7.823 0 0 1-13.184 0 5.87 5.87 0 0 0 2.568-3.934 18.992 18.992 0 0 0 3.4 1.539l.624.209.622-.207a19.174 19.174 0 0 0 3.4-1.529 5.869 5.869 0 0 0 2.566 3.922zM40.88 85.391a15.237 15.237 0 0 1-8.4 7.973 15.275 15.275 0 0 1-9.839-14.292v-5.266h.338a15.533 15.533 0 0 0 9.5-3.282 15.546 15.546 0 0 0 8.056 3.16 23.267 23.267 0 0 0-.185 2.765v5.565a11.5 11.5 0 0 0 .53 3.377zM28.458 95.79a19.33 19.33 0 0 0 3.4 1.529l.622.207.622-.207a18.868 18.868 0 0 0 3.4-1.539 5.866 5.866 0 0 0 2.568 3.934 7.822 7.822 0 0 1-13.182 0 5.869 5.869 0 0 0 2.566-3.922zm13.107.823a1.964 1.964 0 0 1-1.21-1.816v-1.911a19.288 19.288 0 0 0 2.767-3.406 11.473 11.473 0 0 0 3.06 2.572l7.326 4.189c.2.213.409.419.622.624v1.869a1.964 1.964 0 0 1-1.21 1.816l-.954.4zm30.274-13.6A15.279 15.279 0 0 1 62 97.3a15.275 15.275 0 0 1-9.839-14.292v-5.266h.339A15.533 15.533 0 0 0 62 74.46a15.533 15.533 0 0 0 9.5 3.282h.338zM57.974 99.726a19.33 19.33 0 0 0 3.4 1.529l.622.207.622-.207a19.173 19.173 0 0 0 3.4-1.529 5.864 5.864 0 0 0 2.566 3.922 7.823 7.823 0 0 1-13.184 0 5.869 5.869 0 0 0 2.566-3.922zm13.107.823a1.964 1.964 0 0 1-1.21-1.816v-1.871c.213-.2.419-.409.622-.624l7.326-4.189a11.473 11.473 0 0 0 3.06-2.572 19.287 19.287 0 0 0 2.767 3.406v1.911a1.964 1.964 0 0 1-1.21 1.816l-10.4 4.335zm20.435-7.186a15.237 15.237 0 0 1-8.4-7.973 11.466 11.466 0 0 0 .525-3.375v-6.24c0-.7-.041-1.4-.108-2.1a15.515 15.515 0 0 0 7.979-3.152 15.533 15.533 0 0 0 9.5 3.282h.338v5.266a15.275 15.275 0 0 1-9.839 14.29zm-78.71-62.847a1.968 1.968 0 1 1-1.968 1.968 1.97 1.97 0 0 1 1.968-1.968zM4.935 44.29c0-2.881 2.094-5.366 4.254-7.176a5.84 5.84 0 0 0 3.617 1.273 5.91 5.91 0 0 0 5.9-5.9 5.685 5.685 0 0 0-.075-.736 93.689 93.689 0 0 1 21.72-5.594v1.453l3.6 2.509-.775 4.323 7.024 7.021 4.323-.775 2.513 3.6h2.995v9.947a20.994 20.994 0 0 0-10.683 4.1 21.55 21.55 0 0 0-31.931-2.007C9.473 52.826 4.935 48.472 4.935 44.29zm9.839 42.1V71.839a17.675 17.675 0 0 1 31.641-10.868 22.537 22.537 0 0 0-5.081 8.867 11.551 11.551 0 0 1-7.46-3.325l-1.391-1.391-1.391 1.391a11.547 11.547 0 0 1-8.109 3.359H18.71v9.2a19.2 19.2 0 0 0 5.9 13.855V94.8a1.964 1.964 0 0 1-1.21 1.816l-9.494 3.955a40.463 40.463 0 0 1-3.977-3.042 15.185 15.185 0 0 0 4.845-11.139zm-9.689 28.739a12.752 12.752 0 0 1 7.721-9.839l9.465-3.943a11.778 11.778 0 0 0 20.425 0l4.152 1.73-6.041 2.517a16.647 16.647 0 0 0-9.178 9.536zm29.515 3.935a12.752 12.752 0 0 1 7.721-9.839l9.465-3.943a11.778 11.778 0 0 0 20.425 0l9.465 3.943a12.752 12.752 0 0 1 7.721 9.839zm84.314-3.935H92.368a16.635 16.635 0 0 0-9.178-9.536l-6.041-2.517 4.152-1.73a11.779 11.779 0 0 0 20.427 0l9.465 3.943a12.752 12.752 0 0 1 7.722 9.84zm-4.847-17.6a40.462 40.462 0 0 1-3.977 3.042l-9.49-3.958a1.964 1.964 0 0 1-1.21-1.816v-1.87a19.2 19.2 0 0 0 5.9-13.855v-9.2h-4.274a11.547 11.547 0 0 1-8.109-3.359l-1.391-1.391-1.391 1.391a11.546 11.546 0 0 1-7.342 3.32 21.7 21.7 0 0 0-5.126-8.959 17.678 17.678 0 0 1 31.568 10.966v14.55a15.193 15.193 0 0 0 4.843 11.137zm-7.487-41.2a21.553 21.553 0 0 0-31.88 1.936 21.327 21.327 0 0 0-10.736-4.022V44.29h2.995l2.509-3.6 4.323.775 7.017-7.021-.775-4.323 3.609-2.509v-1.46a93.689 93.689 0 0 1 21.72 5.594 5.75 5.75 0 0 0-.075.738 5.91 5.91 0 0 0 5.9 5.9 5.837 5.837 0 0 0 3.615-1.271c2.166 1.814 4.256 4.3 4.256 7.174 0 4.178-4.544 8.538-12.483 12.039z" transform="translate(-1 -1)" fill="url(#a)"/></svg><svg height="496" viewBox="0 0 496 496" width="496" id="culture" y="1061"><path d="M372.45 69.488l-33.946-33.945L314.8 50.969A126.86 126.86 0 0 0 277.84 35.64L272 8h-48l-5.848 27.64a126.86 126.86 0 0 0-36.96 15.329l-23.704-15.426-33.945 33.945 12.289 29.313L137 160h15c0-53.016 42.984-96 96-96s96 42.984 96 96h16l-.063-61.2zm0 0" fill="#fcd770"/><path d="M128.184 80.543l7.656 18.258L136 160h16c0-20.617 6.559-39.672 17.625-55.313-10.145-12.91-24.809-21.925-41.441-24.144zm0 0M367.71 80.602c-16.831 2.191-31.581 10.957-41.687 23.597C337.29 119.938 344 139.168 344 160h16l-.063-61.2zm0 0" fill="#ffc729"/><path d="M464 296v-39.016c0-14.68-9.992-27.48-24.238-31.046L400 216l-.016-14.465C414.328 193.23 424 177.762 424 160v-13.984c0-26.282-20.258-49.2-46.52-49.993C350.297 95.207 328 117 328 144v16c0 17.762 9.664 33.223 24 41.527V216l-39.762 9.945c-14.246 3.559-24.238 16.36-24.238 31.04V296zm0 0" fill="#ccd1d9"/><path d="M352 256.984c0-14.586-6.617-27.785-17.215-36.68l-22.547 5.641c-14.246 3.559-24.238 16.36-24.238 31.04V296h64zm0 0" fill="#aab2bd"/><path d="M208 296v-39.016c0-14.68-9.992-27.48-24.238-31.046L144 216l-.016-14.465C158.328 193.23 168 177.762 168 160v-13.984c0-26.282-20.258-49.2-46.52-49.993C94.297 95.207 72 117 72 144v16c0 17.762 9.664 33.223 24 41.527V216l-39.762 9.945C41.992 229.504 32 242.305 32 256.985V296zm0 0" fill="#ccd1d9"/><path d="M208 256.984c0-14.687-9.992-27.48-24.238-31.046l-22.547-5.641C150.617 229.199 144 242.407 144 256.984V296h64zm0 0" fill="#aab2bd"/><path d="M336 296v-39.016c0-14.68-9.992-27.48-24.238-31.046L272 216l-.016-14.465C286.328 193.23 296 177.762 296 160v-13.984c0-26.282-20.258-49.2-46.52-49.993C222.297 95.207 200 117 200 144v16c0 17.762 9.664 33.223 24 41.527V216l-39.762 9.945c-14.246 3.559-24.238 16.36-24.238 31.04V296zm0 0" fill="#ccd1d9"/><g fill="#aab2bd"><path d="M464 256.984c0-14.687-9.992-27.48-24.238-31.046l-8.817-2.204L324.047 280h-1.809L288 270.223V296h176zm0 0"/><path d="M336 273.71L324.047 280h-1.809l-48.117-13.742c-4.21-1.211-8.535-1.793-12.89-2.035l-34.942-11.176A106.085 106.085 0 0 0 193.91 248c-7.75 0-15.504.848-23.2 2.559l-10.366 2.402c-.176 1.328-.344 2.656-.344 4.023V296h176zm0 0"/><path d="M170.71 250.559L136 258.602v-11.793l-48.977-28.57-30.785 7.698C41.992 229.505 32 242.305 32 256.985V296h176v-39.016c0-2.808-.473-5.504-1.16-8.12-4.281-.52-8.594-.864-12.93-.864-7.742 0-15.504.848-23.2 2.559zm0 0"/></g><path d="M338.504 387.055l-67.602-60.84L258.04 280l-36.625-11.71A90.373 90.373 0 0 0 193.91 264c-6.59 0-13.156.719-19.59 2.152L80 288l-8 64 56.398 35.441L231 473l12.367 10.91a16.355 16.355 0 0 0 10.817 4.09h1.472c9.024 0 16.344-7.32 16.344-16.344 0-4.847-2.152-9.449-5.879-12.558A21.14 21.14 0 0 0 279.656 464c9.024 0 16.344-7.32 16.344-16.344 0-4.847-2.152-9.449-5.879-12.558l-30.656-25.547 31.984 26.656A16.373 16.373 0 0 0 301.922 440h1.734c9.024 0 16.344-7.32 16.344-16.344 0-4.847-2.152-9.449-5.879-12.558l1.262 1.054A16.593 16.593 0 0 0 326.008 416h1.383c9.175 0 16.609-7.434 16.609-16.61 0-4.702-2-9.19-5.496-12.335zm0 0" fill="#ecc19c"/><path d="M338.504 387.055l-67.602-60.84A24.202 24.202 0 0 0 254.703 320c-4.39 0-8.695 1.191-12.457 3.45l-29.781 17.87a18.831 18.831 0 0 1-9.672 2.68C192.414 344 184 335.586 184 325.207v-1.59a18.79 18.79 0 0 1 10.39-16.808l44.633-22.313A42.427 42.427 0 0 1 258.04 280c3.953 0 7.89.55 11.688 1.64L320 296h8l152-80h8v104l-144 72zm0 0" fill="#f5e0cd"/><path d="M248 400l-11.121 11.566 44.336 36.946c3.793 3.152 8.265 5.273 12.992 6.441 1.113-2.21 1.793-4.664 1.793-7.297 0-4.847-2.152-9.449-5.879-12.558zm0 0" fill="#dfb28b"/><path d="M200 463.031c0 9.367 7.602 16.969 16.969 16.969 4.504 0 8.816-1.785 12-4.969l14.054-14.054a16.961 16.961 0 0 0 4.97-12C248 439.602 240.397 432 231.03 432a16.961 16.961 0 0 0-12 4.969l-14.054 14.054A16.968 16.968 0 0 0 200 463.031zm0 0" fill="#f5e0cd"/><path d="M176 439.031c0 9.367 7.602 16.969 16.969 16.969 4.504 0 8.816-1.785 12-4.969l14.054-14.054a16.961 16.961 0 0 0 4.97-12C224 415.602 216.397 408 207.03 408a16.961 16.961 0 0 0-12 4.969l-14.054 14.054A16.968 16.968 0 0 0 176 439.031zm0 0" fill="#f5e0cd"/><path d="M152 415.031c0 9.367 7.602 16.969 16.969 16.969 4.504 0 8.816-1.785 12-4.969l14.054-14.054a16.961 16.961 0 0 0 4.97-12C200 391.602 192.397 384 183.03 384a16.961 16.961 0 0 0-12 4.969l-14.054 14.054A16.968 16.968 0 0 0 152 415.031zm0 0" fill="#f5e0cd"/><path d="M182.344 400.281c3.992-3.992 6.734-9.023 8.265-14.418-2.289-1.152-4.84-1.863-7.578-1.863a16.961 16.961 0 0 0-12 4.969l-14.054 14.054A16.987 16.987 0 0 0 152 415.031c0 2.739.71 5.29 1.863 7.578 5.395-1.53 10.434-4.273 14.418-8.265zm0 0M206.344 424.281c3.992-3.992 6.734-9.023 8.265-14.418-2.289-1.152-4.84-1.863-7.578-1.863a16.961 16.961 0 0 0-12 4.969l-14.054 14.054A16.987 16.987 0 0 0 176 439.031c0 2.739.71 5.29 1.863 7.578 5.395-1.53 10.434-4.273 14.418-8.265zm0 0M230.344 448.281c3.992-3.992 6.734-9.023 8.265-14.418-2.289-1.152-4.84-1.863-7.578-1.863a16.961 16.961 0 0 0-12 4.969l-14.054 14.054A16.987 16.987 0 0 0 200 463.031c0 2.739.71 5.29 1.863 7.578 5.395-1.53 10.434-4.273 14.418-8.265zm0 0" fill="#f0d0b4"/><path d="M128 391.031c0 9.367 7.602 16.969 16.969 16.969 4.504 0 8.816-1.785 12-4.969l14.054-14.054a16.961 16.961 0 0 0 4.97-12C176 367.602 168.397 360 159.03 360a16.961 16.961 0 0 0-12 4.969l-14.054 14.054A16.968 16.968 0 0 0 128 391.031zm0 0" fill="#f5e0cd"/><path d="M133.313 275.648L80 288l-8 64 33.488 21.04zm0 0" fill="#dfb28b"/><path d="M120 264L88 376h-8L8 352V200h16l96 56zm0 0" fill="#e6e9ed"/><path d="M88.527 237.64L24 200H8v152l48 16 32-128zm0 0" fill="#b4dd7f"/><path d="M272 376l-11.121 11.566 44.336 36.946c3.793 3.152 8.265 5.273 12.992 6.441 1.113-2.21 1.793-4.664 1.793-7.297 0-4.847-2.152-9.449-5.879-12.558zm0 0" fill="#dfb28b"/><path d="M496 208h-17.977l-26.793 14.098c-3.015-1.664-6.152-3.075-9.535-3.922l-33.703-8.434v-3.832C422.902 195.504 432 178.313 432 160v-13.984c0-31.078-24.352-57.086-54.281-57.993-1.52-.039-3.016.016-4.52.09l8.738-20.457-42.363-42.351-24.972 16.254a135.318 135.318 0 0 0-29.946-12.422L278.488 0H217.52l-6.168 29.145a135.164 135.164 0 0 0-29.946 12.421l-24.972-16.254-42.329 42.329 8.59 20.472c-.328-.015-.64-.074-.968-.082-15.32-.445-29.75 5.145-40.711 15.785C70.039 114.45 64 128.72 64 144v16c0 18.313 9.09 35.496 24 45.902v3.84l-21.984 5.496L26.168 192H0v165.77L78.703 384h15.328l1.914-6.703 24.125 14.48c.395 13.118 10.914 23.672 24.02 24.133.46 13.05 10.95 23.54 24 24 .46 13.05 10.95 23.54 24 24 .476 13.356 11.414 24.09 24.879 24.09 5 0 9.902-1.559 14.023-4.336l7.086 6.258A24.359 24.359 0 0 0 254.176 496h1.48c13.313 0 24.145-10.762 24.313-24.031 13.168-.168 23.832-10.832 24-24 13.176-.168 23.847-10.848 24-24.024C341.266 423.633 352 412.77 352 399.398c0-.804-.04-1.597-.121-2.398L496 324.945zm-80-61.984V160c0 14.2-7.672 27.465-20.023 34.617l-4 2.313.03 25.316 39.97 9.984L344 278.535v-21.55c0-10.755-4.344-20.602-11.457-27.88L360 222.246V196.91l-3.992-2.308C343.664 187.465 336 174.199 336 160v-16c0-10.91 4.313-21.113 12.152-28.71 7.832-7.595 18.223-11.688 29.086-11.267 21.371.641 38.762 19.48 38.762 41.993zm-155.938 126.23l-36.214-11.574c-16.504-5.29-34.368-6.078-51.262-2.336L168 259.352v-2.368c0-11.03 7.48-20.609 18.176-23.289L232 222.246V196.91l-3.992-2.308C215.664 187.465 208 174.199 208 160v-16c0-10.91 4.313-21.113 12.152-28.71 7.832-7.595 18.29-11.688 29.086-11.267 21.371.641 38.762 19.48 38.762 41.993V160c0 14.2-7.672 27.465-20.023 34.617l-4 2.313.03 25.316 45.817 11.45A23.983 23.983 0 0 1 328 256.983v29.977L326.023 288h-4.902l-49.184-14.055c-3.875-1.097-7.867-1.547-11.875-1.699zm-90.269-152.512C184.816 90.625 215.055 72 248 72c32.633 0 62.742 18.375 77.879 47.09A55.638 55.638 0 0 0 320 144v16c0 18.312 9.09 35.496 24 45.902v3.84l-32 8.012-32.008-8.012v-3.832C294.902 195.504 304 178.312 304 160v-13.984c0-31.079-24.352-57.086-54.281-57.993-15.313-.449-29.75 5.145-40.711 15.786C198.039 114.449 192 128.719 192 144v16c0 18.312 9.09 35.496 24 45.902v3.84l-32 8.012-32.008-8.012v-3.832C166.902 195.504 176 178.312 176 160v-13.984c0-9.414-2.266-18.352-6.207-26.282zM133 71.352l25.559-25.559 22.496 14.64 4.304-2.64c10.786-6.61 22.442-11.45 34.641-14.367l4.922-1.18L230.488 16h35.032l5.55 26.238 4.922 1.176c12.2 2.922 23.856 7.762 34.64 14.371l4.305 2.64 22.497-14.64L362.96 71.32l-9.074 21.246c-6.176 2.657-11.903 6.395-16.887 11.227-.328.32-.61.664-.93.992C317.223 74.825 283.902 56 248 56c-36.16 0-69.574 19-88.375 49.266-5.031-5.266-11.016-9.532-17.648-12.512zm-29 150.894V196.91l-3.992-2.308C87.664 187.465 80 174.199 80 160v-16c0-10.91 4.313-21.113 12.152-28.71 7.832-7.595 18.246-11.688 29.086-11.267 21.371.641 38.762 19.48 38.762 41.993V160c0 14.2-7.672 27.465-20.023 34.617l-4 2.313.03 25.316 27.45 6.86C156.344 236.382 152 246.23 152 256.983v5.926l-24.953 5.547.648-2.266.305-14.785-42.191-24.613zM16 208h5.832l57.535 33.559-29.031 116.12L16 346.23zm65.297 160l-15.746-5.246 28.203-112.8L112 260.593v2.285L81.969 368zM136 391.031a9.03 9.03 0 0 1 2.625-6.344l14.063-14.062A9.03 9.03 0 0 1 159.03 368c4.946 0 8.969 4.023 8.969 8.969a9.03 9.03 0 0 1-2.625 6.344l-14.063 14.062A9.03 9.03 0 0 1 144.97 400c-4.946 0-8.969-4.023-8.969-8.969zm24 24a9.03 9.03 0 0 1 2.625-6.344l14.063-14.062A9.03 9.03 0 0 1 183.03 392c4.946 0 8.969 4.023 8.969 8.969a9.03 9.03 0 0 1-2.625 6.344l-14.063 14.062A9.03 9.03 0 0 1 168.97 424c-4.946 0-8.969-4.023-8.969-8.969zm24 24a9.03 9.03 0 0 1 2.625-6.344l14.063-14.062A9.03 9.03 0 0 1 207.03 416c4.946 0 8.969 4.023 8.969 8.969a9.03 9.03 0 0 1-2.625 6.344l-14.063 14.062A9.03 9.03 0 0 1 192.97 448c-4.946 0-8.969-4.023-8.969-8.969zM216.969 472c-4.946 0-8.969-4.023-8.969-8.969a9.03 9.03 0 0 1 2.625-6.344l14.063-14.062A9.03 9.03 0 0 1 231.03 440c4.946 0 8.969 4.023 8.969 8.969a9.03 9.03 0 0 1-2.625 6.344l-14.063 14.062A9.03 9.03 0 0 1 216.97 472zm38.687 8h-1.48a8.29 8.29 0 0 1-5.512-2.09l-5.984-5.277 6.007-6.008c2.145-2.145 3.81-4.695 5.04-7.434l7.273 6.055a8.325 8.325 0 0 1 3 6.41c0 4.602-3.742 8.344-8.344 8.344zm71.742-72h-1.382a8.583 8.583 0 0 1-5.504-2l-43.383-36.152-10.25 12.297 42.129 35.101a8.343 8.343 0 0 1 2.992 6.41c0 4.602-3.742 8.344-8.344 8.344h-1.746a8.344 8.344 0 0 1-5.336-1.938l-43.453-36.207-10.25 12.297L285 441.258a8.283 8.283 0 0 1 3 6.398c0 4.602-3.742 8.344-8.344 8.344-3.07 0-6.062-1.09-8.418-3.047l-17.855-14.883c-3.934-8.039-12.016-13.644-21.48-13.98-.462-13.05-10.95-23.54-24-24-.462-13.05-10.95-23.54-24-24-.47-13.356-11.407-24.09-24.872-24.09-6.574 0-13.008 2.664-17.656 7.313l-14.062 14.062c-.84.84-1.536 1.793-2.243 2.738l-24.574-14.746 21.543-75.398 54.008-12.008c14.168-3.168 29.105-2.48 42.922 1.941l11.785 3.77-39.953 19.976c-9.13 4.575-14.801 13.758-14.801 23.97v1.581C176 339.977 188.023 352 202.8 352c4.856 0 9.634-1.32 13.786-3.824l29.789-17.864c5.984-3.585 14.016-2.8 19.184 1.848l67.593 60.832a8.66 8.66 0 0 1 2.848 6.406c0 4.747-3.855 8.602-8.602 8.602zM480 315.055l-134.777 67.394a22.222 22.222 0 0 0-1.375-1.336l-67.582-60.832A32.117 32.117 0 0 0 254.71 312a32.222 32.222 0 0 0-16.574 4.594l-29.801 17.87A10.708 10.708 0 0 1 202.8 336C196.84 336 192 331.16 192 325.2v-1.583c0-4.12 2.29-7.816 5.969-9.656l44.625-22.313c7.636-3.824 16.703-4.68 24.933-2.312l50.274 14.36 12.176.304L480 225.04zm0 0"/></svg><svg viewBox="0 0 502.073 502.073" width="502.073" height="502.073" id="email" y="1557"><path d="M501.812 481.176c0 6.269-2.09 11.494-6.269 15.673-4.18 3.135-8.359 5.224-14.629 5.224H21.159c-5.224 0-10.449-2.09-14.629-5.224-4.18-4.18-6.269-9.404-6.269-15.673V175.02h501.551v306.156z" fill="#ffd15c"/><path d="M495.543 496.849c-4.18 3.135-8.359 5.224-14.629 5.224H21.159c-5.224 0-10.449-2.09-14.629-5.224l244.506-210.024 244.507 210.024z" fill="#f8b64c"/><path d="M501.812 175.02l-71.053 51.2L264.62 345.339a23.511 23.511 0 0 1-28.212 0L71.314 226.22.261 175.02l71.053-51.2L225.959 13.061l11.494-8.359a23.511 23.511 0 0 1 28.212 0l11.494 8.359 74.188 53.29 36.571 26.122 42.841 31.347 71.053 51.2z" fill="#40596b"/><path d="M430.759 77.845V226.22L264.62 345.339a23.511 23.511 0 0 1-28.212 0L71.314 226.22V33.959c0-11.494 9.404-20.898 20.898-20.898H364.93l65.829 64.784z" fill="#f2f2f2"/><path d="M365.975 61.127c0 9.404 7.314 16.718 16.718 16.718h48.065l-64.784-64.784.001 48.066z" fill="#cdd6e0"/><path d="M312.686 223.086h16.718c-5.224 11.494-13.584 19.853-25.078 26.122-12.539 7.314-28.212 10.449-47.02 10.449-17.763 0-33.437-3.135-45.976-9.404-12.539-6.269-22.988-14.629-29.257-27.167-6.269-11.494-9.404-25.078-9.404-38.661 0-15.673 3.135-29.257 10.449-42.841s16.718-22.988 29.257-29.257c12.539-6.269 27.167-9.404 42.841-9.404 13.584 0 26.122 3.135 36.571 8.359 10.449 5.224 18.808 12.539 24.033 22.988 5.224 9.404 8.359 20.898 8.359 32.392 0 13.584-4.18 26.122-12.539 37.616-10.449 14.629-24.033 20.898-40.751 20.898-4.18 0-8.359-1.045-10.449-2.09-2.09-2.09-4.18-4.18-4.18-7.314-6.269 6.269-13.584 9.404-21.943 9.404-9.404 0-16.718-3.135-21.943-9.404-6.269-6.269-9.404-14.629-9.404-25.078 0-12.539 3.135-24.033 10.449-35.527 8.359-12.539 19.853-18.808 33.437-18.808 9.404 0 16.718 4.18 21.943 11.494l2.09-9.404h21.943l-12.539 58.514c-1.045 4.18-1.045 6.269-1.045 7.314s0 2.09 1.045 3.135 1.045 1.045 2.09 1.045c2.09 0 6.269-2.09 10.449-5.224 5.224-4.18 10.449-9.404 13.584-16.718s5.224-14.629 5.224-21.943c0-13.584-5.224-25.078-14.629-33.437-9.404-9.404-22.988-13.584-40.751-13.584-14.629 0-27.167 3.135-37.616 9.404-10.449 6.269-17.763 14.629-22.988 25.078s-7.314 21.943-7.314 34.482c0 11.494 3.135 21.943 8.359 31.347 6.269 9.404 13.584 16.718 24.033 20.898 10.449 4.18 21.943 6.269 35.527 6.269 12.539 0 24.033-2.09 33.437-5.224 9.404-4.181 16.718-9.405 22.988-16.719zm-88.817-33.437c0 7.314 1.045 11.494 4.18 15.673 3.135 3.135 6.269 5.224 10.449 5.224 3.135 0 6.269-1.045 8.359-2.09s4.18-3.135 6.269-5.224c3.135-3.135 5.225-8.359 7.314-14.629 2.09-6.269 3.135-12.539 3.135-17.763 0-6.269-1.045-10.449-4.18-14.629-3.135-3.135-6.269-5.224-10.449-5.224s-9.404 2.09-12.539 5.224c-4.18 3.135-7.314 8.359-9.404 15.673-2.089 6.271-3.134 12.54-3.134 17.765z" fill="#ff7058"/></svg><svg height="512" viewBox="0 0 100 100" width="512" id="employee" y="2060"><circle cx="49.999" cy="50.004" fill="#ececec" r="19.602"/><circle cx="49.999" cy="50.004" fill="#dc594e" r="16.814"/><path d="M31.997 73.372s3.988-3.12 11.212-1.445c5.553 1.288 9.637.304 11.23-.22a14.2 14.2 0 0 1 2.898-.645c1.792-.196 3.728-.36 4.365 1.34.883 2.355-.751 2.935-.751 2.935s14.217-6.704 17.106-3.988c0 0 1.272 1.04 0 2.196L66.21 80.018s-2.56 1.344-6.25 2.913c-2.298.976-4.523 2.114-6.688 3.357-1.409.81-3.1 1.532-4.226 1.185 0 0-8.958-3.294-14.91-1.502z" fill="#ffd25a"/><path d="M44.121 79.06a64.088 64.088 0 0 1 4.586-.46c.763-.062 1.532-.09 2.293-.14.75-.037 1.498-.112 2.239-.23a21.586 21.586 0 0 0 6.43-2.042c.67-.346 1.34-.714 1.867-1.277-.394.674-1.04 1.165-1.672 1.609-.647.434-1.324.815-2.03 1.148-1.408.676-2.928 1.115-4.471 1.365-.774.114-1.555.182-2.336.2-.77.002-1.533.018-2.3.004a64.124 64.124 0 0 1-4.606-.178z" fill="#edc155"/><path d="M60.808 73.144a1.778 1.778 0 0 0-2.232-1.16l-1.696.536 1.072 3.391 1.696-.536a1.778 1.778 0 0 0 1.16-2.231zM27.593 72.226l4.178-.708 2.682 15.835-4.178.708z" fill="#e6e7e8"/><path d="M32.086 89.822L20.69 91.965A51.451 51.451 0 0 1 5 74.411l23.72-4.438.343 2.007 2.68 15.835z" fill="#344e5c"/><path d="M68.002 26.635s-3.988 3.121-11.212 1.445c-5.553-1.288-9.638-.304-11.23.22a14.2 14.2 0 0 1-2.899.645c-1.792.196-3.727.36-4.364-1.34-.883-2.355.75-2.935.75-2.935s-14.216 6.704-17.106 3.988c0 0-1.271-1.04 0-2.196l11.848-6.473s2.56-1.344 6.25-2.913c2.298-.976 4.523-2.114 6.688-3.357 1.409-.81 3.1-1.532 4.226-1.185 0 0 8.958 3.294 14.91 1.503z" fill="#ffd25a"/><path d="M55.877 20.948a64.09 64.09 0 0 1-4.585.459c-.764.062-1.532.09-2.293.14-.75.037-1.498.112-2.24.23a21.587 21.587 0 0 0-6.429 2.042c-.67.346-1.34.714-1.867 1.278.394-.675 1.04-1.166 1.671-1.61a15.629 15.629 0 0 1 2.03-1.148c1.409-.676 2.928-1.115 4.472-1.365a19.202 19.202 0 0 1 2.335-.2c.77-.002 1.534-.018 2.302-.004a64.13 64.13 0 0 1 4.604.178z" fill="#edc155"/><path d="M39.191 26.864a1.778 1.778 0 0 0 2.232 1.16l1.696-.537-1.072-3.391-1.696.536a1.778 1.778 0 0 0-1.16 2.232zM71.84 27.885l-3.606.61-2.682-15.835 3.605-.61z" fill="#e6e7e8"/><path d="M95 25.597l-23.72 4.438-.343-2.007-2.68-15.843-.343-2.007 11.388-2.143A51.345 51.345 0 0 1 95 25.597z" fill="#344e5c"/><path d="M45.629 56.855a4.436 4.436 0 0 0 4.37 3.728 4.436 4.436 0 0 0 4.372-3.728c-.778-.542-.743-1.287-.743-1.287v-2.306h-7.256l-.018 2.304s.053.747-.725 1.289z" fill="#d6b24e"/><path d="M55.718 44.207l-.003.396c-.077-3.145-2.618-6.09-5.715-6.09s-5.638 2.945-5.715 6.09c-.001 0-.002-.396-.004-.396-.631 0-1.143 1.427-1.143 2.7 0 1.273.512 2.304 1.143 2.304v.082c0 1.573 1.37 3.562 2.769 5.183a3.888 3.888 0 0 0 5.9 0c1.399-1.621 2.768-3.61 2.768-5.183v-.082c.632 0 1.144-1.031 1.144-2.304s-.512-2.7-1.144-2.7z" fill="#ffd25a"/><path d="M54.55 58.985l-1.016 2.983-.008.024-1.615 4.71a9.341 9.341 0 0 1-.68.064.195.195 0 0 1-.096 0 4.26 4.26 0 0 1-.552.032l-.224-.504-.056-5.718-.024-1.935.76-.776v-.008l.392-.4 1.567.768h.008l.704.344.528.264z" fill="#e6e7e8"/><path d="M64.042 59.24a16.836 16.836 0 0 1-9.516 6.958c-.688.192-1.4.344-2.12.44l.272-.92.848-3.726.008-.024.704-3.135.192-.8 1.415-1.583s5.59 1.231 8.197 2.79z" fill="#344e5c"/><path d="M53.639 55.315l-3.643 1.897 2.841 1.774z" fill="#dad7dc"/><path d="M49.712 58.64l-.024 1.928-.056 5.726-.224.504c-.184 0-.368-.008-.552-.032a.134.134 0 0 1-.096-.008 6.472 6.472 0 0 1-.688-.056l-1.607-4.726-.008-.024-1.016-2.967.312-.152.536-.264.695-.344h.008l1.568-.768.392.408z" fill="#e6e7e8"/><path d="M47.584 66.638a15.315 15.315 0 0 1-2.119-.44 16.806 16.806 0 0 1-9.509-6.95c2.607-1.575 8.19-2.798 8.19-2.798l1.415 1.583.192.8.704 3.119.008.024.847 3.742z" fill="#344e5c"/><path d="M46.354 55.315l3.642 1.897-2.841 1.774z" fill="#dad7dc"/><path d="M51.207 66.454l.024.312a.195.195 0 0 1-.096 0 4.26 4.26 0 0 1-.552.032c-.192.016-.384.016-.584.016s-.4 0-.591-.016c-.184 0-.368-.008-.552-.032a.134.134 0 0 1-.096-.008l.024-.304.472-5.934.088-1.167-.68-1.312.288-.176 1.047-.648 1.04.64v.008l.288.176-.68 1.312.096 1.167z" fill="#f37735"/><path d="M48.856 66.766a.134.134 0 0 1-.096-.008 6.472 6.472 0 0 1-.688-.056 8.991 8.991 0 0 1-.488-.064 15.315 15.315 0 0 1-2.119-.44l-1.88-3.638 1.632-.96-1.863-1.024.791-4.126 2.208-1.136h.008v.008l.008.032.623 2.871.168.752.144.688 1.48 6.79zM54.774 61.6l1.631.96-1.88 3.638c-.687.192-1.399.344-2.118.44a5.253 5.253 0 0 1-.496.064 9.341 9.341 0 0 1-.68.064.195.195 0 0 1-.096 0l.072-.312 1.471-6.781.152-.696.168-.752.632-2.903v-.008h.008l2.207 1.136.792 4.126z" fill="#293b44"/><path d="M43.282 45.949c.215.82.668 1.448.727 2.844h.367c-.1-.598-.244-2.098.244-4.367 0 0 7.793.632 9.37-3.093 0 0 1.2-.138 1.338 1.939.139 2.077.092 2.677.508 3l-.207 2.52h.261c.135-.702.501-2.448.869-2.705 0 0 1.2-5.815-1.339-6.923 0 0-.877-3.83-6.784-2.4-5.908 1.43-5.677 5.492-5.677 5.492s.092 2.816.323 3.693z" fill="#344e5c"/></svg><svg width="612" height="612" viewBox="0 0 612 612" id="facebook" y="2572"><path d="M612 306C612 137.004 474.995 0 306 0 137.004 0 0 137.004 0 306c0 168.995 137.004 306 306 306 168.995 0 306-137.005 306-306zm-584.182 0C27.818 152.36 152.36 27.818 306 27.818S584.182 152.36 584.182 306 459.64 584.182 306 584.182 27.818 459.64 27.818 306z"/><path d="M317.739 482.617V306h58.279l9.208-58.529h-67.487v-29.348c0-15.272 5.007-29.849 26.928-29.849h43.813v-58.418h-62.201c-52.298 0-66.569 34.438-66.569 82.175v35.413h-35.885V306h35.885v176.617h58.029z"/></svg><svg viewBox="0 0 280.071 280.071" width="280.071" height="280.071" id="gift" y="3184"><path d="M232.986 17.729C227.578 6.624 216.316 0 202.901 0 172.326 0 150.641 33.034 140 53.879 129.332 33.052 107.683.21 77.168.21c-19.357 0-33.393 13.791-33.393 32.492 0 33.166 31.634 54.807 95.227 54.807s97.283-27.81 97.283-54.535c-.009-5.304-.98-10.511-3.299-15.245zM82.559 50.65c-9.258-5.531-12.557-11.726-12.557-15.699 0-5.075 5.399-8.751 12.837-8.751 17.922 0 40.849 29.438 48.558 43.842-20.652-1.54-41.785-15.174-48.838-19.392zM208.79 39.668c-4.647 9.381-29.219 28.073-59.917 30.365 7.745-14.404 30.715-43.842 48.357-43.842 6.826 0 10.746 2.958 12.111 5.723 1.085 2.206.902 4.822-.551 7.754z" fill="#bf392c"/><path d="M280.048 87.552H.021v70.024h8.751V280.07h262.526V157.577h8.751l-.001-70.025z" fill="#efc75e"/><path d="M8.772 157.568h262.526v17.502H8.772v-17.502z" fill="#d7b354"/><path d="M122.533 87.552h35.003v192.519h-35.003V87.552z" fill="#bf392c"/><path fill="#ac3327" d="M122.533 157.568h35.003v17.502h-35.003z"/></svg><svg viewBox="0 0 495.936 495.936" width="512" height="512" id="hiker" y="3465"><path fill="#ffd6cf" d="M261.44 126.639l5.414-36.48-30.13-1.924-6.004 33.213z"/><path opacity=".32" fill="#831232" d="M263.789 113.234l3.065-23.075-29.919-3.126-3.854 20.941z"/><path fill="#998269" d="M390.253 81.468h20.314v175.014h-20.314z"/><path fill="#998269" d="M390.253 221.817h20.808v274.119h-20.808z"/><path fill="#836f5a" d="M390.253 210.585h20.314v45.898h-20.314z"/><path d="M86.223 411.571l68.329-65.439 24.642-84.343h37.709l-27.157 98.642a18.662 18.662 0 0 1-3.718 7.136 18.748 18.748 0 0 1-2.158 2.612l-80.076 77.462-17.571-36.07z" fill="#347642"/><path fill="#2b5448" d="M179.194 261.789l-9.511 32.553h38.258l8.962-32.553z" opacity=".53"/><path d="M290.966 8.628c-4.351-4.675-10.245-7.376-16.597-7.604L246.345.016c-13.173-.461-24.232 9.841-24.705 22.99l-1.765 49.08c-.229 6.352 2.042 12.425 6.393 17.101 4.351 4.676 10.245 7.376 16.597 7.605l28.023 1.008c.292.011.583.016.874.016 6.033 0 11.767-2.257 16.228-6.408 4.675-4.351 7.376-10.246 7.604-16.597l1.766-49.08c.228-6.355-2.042-12.428-6.394-17.103z" fill="#ffd6cf"/><path d="M157.303 87.679l-23.692-5.615a4.385 4.385 0 0 0-5.325 3.481l-12.838 70.506a5.916 5.916 0 0 0 4.489 6.823l23.25 5.365 14.116-80.56z" fill="#aa6518"/><path d="M176.825 219.612l-38.613-6.767c-5.208-.913-8.722-5.92-7.81-11.129l23.86-136.156c.913-5.208 5.92-8.722 11.129-7.81l38.613 6.767c5.208.913 8.722 5.92 7.81 11.129l-23.86 136.156c-.913 5.208-5.921 8.723-11.129 7.81z" fill="#ffb057"/><path d="M204.004 64.518l-1.495-.262-23.391 133.483c-.913 5.208-5.92 8.722-11.128 7.81l-37.118-6.505-.468 2.672c-.913 5.208 2.602 10.216 7.81 11.128l38.613 6.767c5.208.913 10.216-2.602 11.129-7.81l23.86-136.156c.91-5.206-2.604-10.214-7.812-11.127z" opacity=".48" fill="#aa6518"/><path d="M295.491 15.376a24 24 0 0 0-4.436-6.748c-4.351-4.675-10.245-7.376-16.597-7.604L246.434.016c-13.173-.461-24.232 9.841-24.705 22.99l-1.045 29.051c11.485-2.103 52.195-11.13 74.807-36.681z" fill="#c71c4b"/><path d="M273.743 154.929c3.03-17.293-8.639-33.921-25.932-36.952l-32.653-5.722c-5.208-.913-10.216 2.602-11.129 7.81l-24.835 141.723 31.074 5.445c.178.361.347.724.551 1.077l51.96 91.727v101.154l37.734 4.384V356.311c0-1.152-.121-2.276-.321-3.373a18.658 18.658 0 0 0-2.417-7.675l-43.828-77.372 12.087-68.975 7.709-43.987z" fill="#71ce93"/><path fill="#71ce93" d="M220.917 153.798l71.75 71.75.454-.454.026.611 90.195-3.888-1.506-34.917-75.151 3.24-56.868-54.505z"/><path d="M119.415 483.709l-52.663-52.663 19.475-19.475 39.956 50.461a11.883 11.883 0 0 1-.883 15.75l-5.885 5.927z" fill="#d8edde"/><path fill="#ffd6cf" d="M381.836 186.9l47.348-2.398-13.745 36.524-32.097.791z"/><path d="M300.193 352.938a18.658 18.658 0 0 0-2.417-7.675l-43.828-77.372 4.669-26.645-73.631-12.507-5.792 33.049 31.074 5.445c.178.361.347.724.551 1.077l51.96 91.727v101.154l37.734 9.553V356.311a18.676 18.676 0 0 0-.32-3.373z" fill="#3f8e50"/><circle cx="250.335" cy="48.907" r="14.02" fill="#ffd6cf"/><path d="M337.257 488.734H262.78v-27.541l63.934 7.428a11.883 11.883 0 0 1 10.512 11.761l.031 8.352z" fill="#d8edde"/></svg><svg viewBox="0 0 314.652 314.652" width="314.652" height="314.652" id="instagram" y="3977"><path d="M157.326 0C70.576 0 0 70.576 0 157.326s70.576 157.326 157.326 157.326 157.326-70.576 157.326-157.326S244.076 0 157.326 0zm0 296.652C80.502 296.652 18 234.15 18 157.326S80.502 18 157.326 18s139.326 62.502 139.326 139.326-62.502 139.326-139.326 139.326z"/><path d="M214.618 80.326H100.034c-10.477 0-19 8.523-19 19v116c0 10.477 8.523 19 19 19h114.584c10.477 0 19-8.523 19-19v-116c0-10.476-8.523-19-19-19zm1 135a1 1 0 0 1-1 1H100.034a1 1 0 0 1-1-1v-116a1 1 0 0 1 1-1h114.584a1 1 0 0 1 1 1v116z"/><path d="M183.583 111.812h20.615v18.911h-20.615z"/><circle cx="157.326" cy="164.946" r="20.324"/><path d="M189.745 164.856c0 17.904-14.514 32.418-32.418 32.418s-32.418-14.514-32.418-32.418l.044-14.445h-14.497v53.761h93.743v-53.761H189.82l-.075 14.445z"/></svg><svg width="512" height="512" viewBox="0 0 512 512" id="linkedin" y="4292"><path d="M256 0C114.609 0 0 114.609 0 256c0 141.391 114.609 256 256 256 141.391 0 256-114.609 256-256C512 114.609 397.391 0 256 0zm0 472c-119.297 0-216-96.703-216-216S136.703 40 256 40s216 96.703 216 216-96.703 216-216 216z"/><path d="M128.094 383.891h48v-192h-48v192zm192-192c-41.094.688-61.312 30.641-64 32v-32h-48v192h48v-112c0-4.108 10.125-37 48-32 20.344 1.328 31.312 28.234 32 32v112l47.812.219V251.188c-1.687-19.188-11.281-58.61-63.812-59.297zm-168-64c-13.25 0-24 10.734-24 24s10.75 24 24 24 24-10.734 24-24-10.75-24-24-24z"/></svg><svg viewBox="0 0 511.984 511.984" width="511.984" height="511.984" id="medical-insurance" y="4804"><g fill="#cbd0d8"><path d="M138.669 266.664h-21.328c-5.891 0-10.672-4.781-10.672-10.672s4.781-10.656 10.672-10.656h21.328c5.89 0 10.671 4.766 10.671 10.656 0 5.89-4.782 10.672-10.671 10.672zM394.66 266.664h-21.328c-5.891 0-10.672-4.781-10.672-10.672s4.781-10.656 10.672-10.656h21.328c5.891 0 10.672 4.766 10.672 10.656 0 5.89-4.781 10.672-10.672 10.672z"/></g><path d="M255.993 223.993c-5.875 0-10.656-4.765-10.656-10.656V10.672C245.337 4.781 250.118 0 255.993 0c5.905 0 10.671 4.781 10.671 10.672v202.666c0 5.89-4.766 10.655-10.671 10.655z" fill="#434a54"/><path d="M152.465 139.09c22.53 0 42.093 12.812 51.779 31.53 9.672-18.718 29.218-31.53 51.749-31.53 22.546 0 42.092 12.812 51.779 31.53 9.688-18.718 29.218-31.53 51.764-31.53 18.577 0 35.14 8.703 45.796 22.264v-1.359c0-82.466-66.857-149.323-149.339-149.323-82.467 0-149.324 66.857-149.324 149.323v1.359c10.672-13.562 27.219-22.264 45.796-22.264z" fill="#ed5564"/><path d="M309.335 213.337H202.666c-5.89 0-10.671 4.766-10.671 10.656v63.998c0 5.891 4.781 10.672 10.671 10.672h106.669c5.891 0 10.656-4.781 10.656-10.672v-63.998a10.65 10.65 0 0 0-10.656-10.656zm-10.672 63.998h-85.325v-42.67h85.325v42.67z" fill="#646c77"/><path d="M447.985 501.328a10.648 10.648 0 0 1-10.654 10.656H74.671c-5.891 0-10.672-4.766-10.672-10.656V266.664c0-5.891 4.781-10.672 10.672-10.672h362.66c5.89 0 10.654 4.781 10.654 10.672v234.664z" fill="#e5e8ec"/><path d="M437.331 490.656H74.671c-5.891 0-10.672-4.781-10.672-10.672v21.344c0 5.891 4.781 10.656 10.672 10.656h362.66c5.89 0 10.654-4.766 10.654-10.656v-21.344c0 5.891-4.764 10.672-10.654 10.672z" fill="#cbd0d8"/><path d="M277.336 426.659c0 11.781-9.563 21.327-21.343 21.327-11.781 0-21.328-9.546-21.328-21.327v-85.326c0-11.781 9.547-21.343 21.328-21.343 11.78 0 21.343 9.562 21.343 21.343v85.326z" fill="#da4453"/><path d="M319.991 383.987c0 11.781-9.531 21.344-21.328 21.344h-85.325c-11.781 0-21.343-9.563-21.343-21.344 0-11.78 9.562-21.327 21.343-21.327h85.325c11.797 0 21.328 9.547 21.328 21.327z" fill="#ed5564"/></svg><svg viewBox="0 1 466.104 466" width="466.104" height="466" id="project-management" y="5316"><path d="M194.105 440.313c0 13.253 10.743 24 24 24h32c13.254 0 24-10.747 24-24v-48h-80zm0 0" fill="#ebebeb"/><path d="M156.406 305.566a144.435 144.435 0 0 1-19.71-15.261c-5.223 20.082-24.962 32.816-45.41 29.3-20.454-3.515-34.806-22.105-33.028-42.78 1.777-20.677 19.094-36.544 39.847-36.513 1.223 0 2.399.254 3.567.36a143.907 143.907 0 0 1-11.488-56.36H80l-5.527 26.293a8 8 0 0 1-12.368 4.946L40 200.312l-24 24 15.2 22.102a7.991 7.991 0 0 1 .84 7.508 7.984 7.984 0 0 1-5.782 4.86L0 264.311v32l26.29 5.528a8.014 8.014 0 0 1 5.784 4.86 8.002 8.002 0 0 1-.844 7.507L16 336.313l24 24 22.105-15.204a8.002 8.002 0 0 1 12.375 4.945L80 376.313h32l5.52-26.296a7.995 7.995 0 0 1 4.863-5.79 7.987 7.987 0 0 1 7.512.844L152 360.313l25.113-25.114a46.59 46.59 0 0 0-20.707-29.633zm0 0" fill="#c9dfff"/><path d="M378.105 184.313c-.007-69.043-49.02-128.368-116.82-141.399-67.8-13.031-135.312 23.89-160.914 88.012-25.601 64.12-2.094 137.39 56.035 174.64a45.875 45.875 0 0 1 21.7 38.418v32.329c0 13.253 10.742 24 24 24h64c13.253 0 24-10.747 24-24v-31.665a47.128 47.128 0 0 1 22.16-39.378 143.879 143.879 0 0 0 65.84-120.957zm0 0" fill="#ffb41f"/><path d="M427.648 99.68l25.153-18.864L424 42.414l-25.152 18.863a15.998 15.998 0 0 1-17.746.961 16.005 16.005 0 0 1-7.688-16.023l4.441-31.113-47.52-6.79-4.44 31.11a15.988 15.988 0 0 1-11.864 13.242 15.993 15.993 0 0 1-16.773-5.898l-18.86-25.153L240 50.414l18.855 25.152c3.88 5.18 4.258 12.18.961 17.746s-9.62 8.598-16.023 7.688l-31.113-4.441-6.793 47.52 31.12 4.44a15.998 15.998 0 0 1 7.337 28.641l-25.145 18.863L248 234.422l25.145-18.856a16.004 16.004 0 0 1 17.753-.968 16.007 16.007 0 0 1 7.688 16.03l-4.48 31.106 47.519 6.793 4.48-31.12a15.993 15.993 0 0 1 11.868-13.235c6.27-1.61 12.89.723 16.77 5.898l18.866 25.145 38.399-28.8-18.871-25.145a15.997 15.997 0 1 1 15.063-25.438l31.113 4.445 6.792-47.52-31.113-4.444a16 16 0 1 1-7.344-28.633zM336 194.414c-30.93 0-56-25.07-56-56 0-30.926 25.07-56 56-56s56 25.074 56 56c0 30.93-25.07 56-56 56zm0 0" fill="#1cc8eb"/><path d="M194.105 416.313h80v16h-80zm0 0" fill="#9e9e9e"/><g fill="#fa0"><path d="M226.105 352.313h16v24h-16zm0 0M242.105 336.313h-16c-.007-21.153-13.05-40.114-32.8-47.684-39.371-15.395-66.723-51.645-70.715-93.73-3.992-42.086 16.05-82.833 51.824-105.356l8.488 13.535c-30.672 19.3-47.863 54.23-44.441 90.313 3.418 36.078 26.863 67.156 60.617 80.351 25.93 9.918 43.047 34.809 43.027 62.57zm0 0M394.105 296.313h40a8 8 0 0 1 0 16h-40a8 8 0 0 1 0-16zm0 0M378.105 344.316a7.998 7.998 0 0 1 11.266-1.027l35.711 29.754a7.998 7.998 0 0 1 1.027 11.266c-2.832 3.394-7.875 3.855-11.27 1.027l-35.71-29.754a7.998 7.998 0 0 1-1.024-11.266zm0 0M346.105 360.313c4.418 0 8 3.578 8 8v40a8 8 0 0 1-16 0v-40c0-4.422 3.583-8 8-8zm0 0M7.93 134.602l48.476-12.11a7.997 7.997 0 0 1 9.7 5.82 7.995 7.995 0 0 1-5.825 9.696l-48.476 12.11a7.997 7.997 0 0 1-9.7-5.821 7.995 7.995 0 0 1 5.825-9.695zm0 0M18.102 48.316c2.566-3.593 7.562-4.421 11.156-1.855l42.976 30.7a7.996 7.996 0 1 1-9.293 13.01L19.965 59.474a7.996 7.996 0 0 1-1.863-11.157zm0 0M89.75.305a7.998 7.998 0 0 1 9.73 5.77L111.88 54.57a8 8 0 1 1-15.5 3.965L83.98 10.04A8.002 8.002 0 0 1 89.75.305zm0 0"/></g></svg><svg viewBox="0 0 512.039 512.039" width="512" height="512" id="promotion" y="5782"><path d="M205.633 95.159c-18.923 23.243-44.148 39.914-72.949 48.211-9.416 2.712-14.85 12.543-12.138 21.958 2.558 8.88 11.447 14.217 20.348 12.522a17.92 17.92 0 0 0 1.611-.384A182.001 182.001 0 0 0 184 159.718l21.633-64.559z" fill="#00ccf2"/><path d="M256.123 204.264l19.316-55.177c5.827.906 11.681 1.37 17.513 1.37 26.296 0 52.126-9.104 72.888-26.349l2.382-1.979c7.398-6.147 8.921-17.135 3.042-24.749-6.172-7.993-17.686-9.215-25.389-2.815l-2.708 2.25a78.715 78.715 0 0 1-14.85 9.737c-20.449 10.316-45.023 4.975-60.604-11.812-7.624-8.214-18.523-13.43-30.804-13.43-19.147 0-35.876 12.934-40.696 31.464l-23.8 91.49h83.71z" fill="#00ccf2"/><path d="M172.411 204.264l-69.924 183.355c-4.542 11.909 3.199 24.942 15.83 26.652l.467.063c8.645 1.17 16.973-3.214 20.852-10.906 19.775-39.208 78.152-154.629 78.152-154.629h23.708l-12.09 76.012c-1.79 11.251 6.904 21.437 18.296 21.437a18.526 18.526 0 0 0 17.848-13.559l22.722-81.646c6.543-23.509-11.135-46.779-35.538-46.779H172.411z" fill="#ffbe52"/><g fill="#ff6371"><path d="M501.996 222.43l-86.184 17.345 18.731 18.731-59.904 59.904-42.496-42.497L134.7 473.358l28.682 28.681 168.761-168.76 42.496 42.497 88.588-88.587 21.424 21.425z"/><path d="M501.996 222.43l-86.184 17.345 18.731 18.731-59.904 59.904-42.496-42.497L134.7 473.358l28.682 28.681 168.761-168.76 42.496 42.497 88.588-88.587 21.424 21.425z"/></g><circle cx="262.856" cy="45.655" r="35.655" fill="#fed2a4"/><path d="M87.756 279.308L13.85 205.402c-5.077-5.077-5.077-13.308 0-18.385l53.647-53.647c5.077-5.077 13.308-5.077 18.385 0l73.906 73.906c5.077 5.077 5.077 13.308 0 18.385l-53.647 53.647c-5.077 5.076-13.308 5.076-18.385 0z" fill="#ff9357"/><path d="M75.874 217.904l-3.058-3.058c-5.372-5.372-5.372-14.081 0-19.452L85.6 182.61l22.51 22.51-12.784 12.784c-5.372 5.371-14.081 5.371-19.452 0z" fill="#fff"/><g><path d="M509.067 215.358a10.01 10.01 0 0 0-9.044-2.732l-86.184 17.345a10.002 10.002 0 0 0-5.099 16.875l11.66 11.66-45.762 45.762-35.426-35.426a10.003 10.003 0 0 0-14.142 0l-43.47 43.471 16.306-58.59c3.964-14.243 1.108-29.163-7.835-40.936-5.478-7.21-12.71-12.526-20.886-15.572l13.035-37.236c3.597.316 7.185.477 10.732.477 28.876 0 57.03-10.178 79.277-28.657l2.383-1.979c11.729-9.745 13.733-26.68 4.565-38.552-4.649-6.021-11.367-9.797-18.917-10.631-7.553-.835-14.933 1.381-20.777 6.236l-2.707 2.249a68.858 68.858 0 0 1-12.965 8.501c-15.42 7.778-34.676 4.314-47.471-8.349 18.612-5.765 32.17-23.139 32.17-43.621C308.511 20.48 288.03 0 262.856 0c-25.175 0-45.655 20.48-45.655 45.654 0 10.018 3.251 19.286 8.742 26.822a52.096 52.096 0 0 0-26.885 15.162 9.99 9.99 0 0 0-1.179 1.208c-17.629 21.654-41.131 37.186-67.964 44.915-7.265 2.094-13.015 6.918-16.466 13.034l-20.496-20.496c-8.968-8.967-23.558-8.966-32.527 0l-26.823 26.824L6.78 179.946A22.845 22.845 0 0 0 .043 196.21a22.856 22.856 0 0 0 6.736 16.264l73.905 73.905a22.851 22.851 0 0 0 16.264 6.736c6.145 0 11.92-2.393 16.264-6.736l27.773-27.773-13.169 34.532c-1.968 5.16.62 10.939 5.78 12.907a9.983 9.983 0 0 0 3.562.659c4.028 0 7.825-2.452 9.346-6.439l32.798-86.001H252.735c8.479 0 16.282 3.872 21.411 10.623s6.767 15.307 4.493 23.474l-22.723 81.646a8.552 8.552 0 0 1-8.214 6.24c-3.422 0-5.532-1.874-6.485-2.991s-2.473-3.496-1.936-6.874l12.091-76.012a9.999 9.999 0 0 0-9.876-11.571h-23.708a10 10 0 0 0-8.924 5.486c-.584 1.154-58.605 115.875-78.157 154.639-1.957 3.882-6.212 6.097-10.575 5.5l-.474-.064c-2.977-.402-5.563-2.114-7.098-4.697s-1.8-5.674-.729-8.48l6.162-16.157c1.968-5.16-.62-10.938-5.78-12.907-5.159-1.968-10.938.621-12.907 5.78l-6.162 16.157c-3.259 8.546-2.449 17.957 2.222 25.821 4.671 7.863 12.548 13.077 21.604 14.303l.474.063c1.371.187 2.737.276 4.094.276 11.322 0 21.852-6.326 27.027-16.588 17.078-33.86 63.524-125.706 75.372-149.132h5.843l-10.25 64.441a28.485 28.485 0 0 0 6.476 23 28.483 28.483 0 0 0 13.02 8.649L127.629 466.286a10.003 10.003 0 0 0 0 14.142l28.683 28.682c1.953 1.952 4.512 2.929 7.071 2.929s5.118-.977 7.071-2.929l55.141-55.141c3.905-3.905 3.905-10.237 0-14.143-3.906-3.904-10.236-3.904-14.143 0l-48.069 48.07-14.54-14.54 183.3-183.302 35.426 35.426a10.003 10.003 0 0 0 14.142 0l59.903-59.904c3.905-3.905 3.905-10.237 0-14.143l-5.538-5.538 53.149-10.696-10.696 53.149-8.231-8.231c-3.906-3.904-10.236-3.904-14.143 0l-81.516 81.516-35.426-35.426c-3.906-3.904-10.236-3.904-14.143 0l-57.051 57.051c-3.905 3.905-3.905 10.237 0 14.143 3.906 3.904 10.236 3.904 14.143 0l49.979-49.979 35.426 35.426c3.906 3.904 10.236 3.904 14.143 0l81.516-81.516 14.354 14.354a9.999 9.999 0 1 0 16.875-5.099l17.345-86.185a10.004 10.004 0 0 0-2.733-9.044zM262.856 20c14.146 0 25.654 11.509 25.654 25.654 0 14.146-11.509 25.655-25.654 25.655-14.146 0-25.655-11.509-25.655-25.655C237.201 31.509 248.71 20 262.856 20zm-98.952 177.25l-12.17-12.17a193.284 193.284 0 0 0 17.015-6.456l-4.845 18.626zm-33.749-34.688c-1.182-4.102 1.195-8.4 5.297-9.582a155.984 155.984 0 0 0 45.586-21.597l-5.647 21.71a172.464 172.464 0 0 1-35.657 14.765 8.385 8.385 0 0 1-.712.17c-1.845.351-3.691-.016-5.241-.9l-2.929-2.929a7.61 7.61 0 0 1-.697-1.637zm-55.588-22.121c.585-.585 1.354-.877 2.122-.877s1.537.292 2.121.877l36.452 36.452a27.489 27.489 0 0 0 5.978 5.978l31.476 31.476a3.002 3.002 0 0 1 0 4.242l-19.752 19.752-21.967-21.967 4.184-4.184c3.905-3.905 3.905-10.237 0-14.143l-22.51-22.51c-3.906-3.904-10.236-3.904-14.143 0l-4.184 4.184-19.529-19.529 19.752-19.751zm13.688 70.391a3.74 3.74 0 0 1-2.655 1.101c-.58 0-1.697-.144-2.654-1.1v-.001l-3.059-3.058a3.743 3.743 0 0 1-1.1-2.654 3.74 3.74 0 0 1 1.101-2.655l5.712-5.712 8.367 8.367-5.712 5.712zm10.814 61.405a2.944 2.944 0 0 1-2.121.878 2.942 2.942 0 0 1-2.121-.879l-73.905-73.905a2.943 2.943 0 0 1-.879-2.121c0-.567.152-1.395.879-2.121l19.751-19.752L61.137 194.8a23.667 23.667 0 0 0-2.35 10.32 23.6 23.6 0 0 0 6.958 16.797l3.058 3.057v.001a23.601 23.601 0 0 0 16.797 6.958c3.634 0 7.142-.814 10.32-2.35l22.902 22.902-19.753 19.752zm142.842-77.973h-56.564l20.543-78.973c3.674-14.12 16.429-23.981 31.019-23.981 9.013 0 17.35 3.634 23.475 10.233 18.788 20.244 48.577 25.975 72.436 13.938a88.789 88.789 0 0 0 16.738-10.974l2.707-2.249a7.66 7.66 0 0 1 5.801-1.74 7.685 7.685 0 0 1 5.283 2.975c2.513 3.253 1.832 8.163-1.516 10.944l-2.382 1.979c-18.664 15.504-42.28 24.042-66.498 24.042-5.259 0-10.634-.421-15.977-1.252A9.991 9.991 0 0 0 266 145.783l-16.972 48.481h-7.117z"/><path d="M246.996 408.8c-2.63 0-5.21 1.069-7.07 2.93a10.072 10.072 0 0 0-2.93 7.07c0 2.64 1.069 5.21 2.93 7.069 1.86 1.87 4.44 2.931 7.07 2.931s5.21-1.061 7.069-2.931a10.057 10.057 0 0 0 2.931-7.069c0-2.631-1.07-5.211-2.931-7.07a10.067 10.067 0 0 0-7.069-2.93zM122.886 344.14c2.63 0 5.21-1.07 7.07-2.931 1.859-1.859 2.93-4.439 2.93-7.069s-1.07-5.21-2.93-7.07c-1.87-1.86-4.44-2.93-7.07-2.93s-5.21 1.069-7.08 2.93c-1.859 1.86-2.92 4.44-2.92 7.07s1.061 5.21 2.92 7.069a10.1 10.1 0 0 0 7.08 2.931z"/></g></svg><svg width="123.862" height="122.621" viewBox="0 0 123.862 122.621" id="quality-assurance" y="6294"><defs><linearGradient id="a" x1=".5" y1="1" x2=".5" gradientUnits="objectBoundingBox"><stop offset="0" stop-color="#fc5b5b"/><stop offset="1" stop-color="#fba830"/></linearGradient></defs><path d="M81.488 52.153l-1.155-3.824a59.15 59.15 0 0 0 3.778-1.279l1.4 3.742a62.431 62.431 0 0 1-4.023 1.361zm-8.568 7.342v-5.37a67.605 67.605 0 0 0 4.447-.869l-.9-3.894a60.63 60.63 0 0 1-5.8 1.053l-1.74.23V59.5c0 .535.012 1.069.04 1.6l3.992-.2a27.08 27.08 0 0 1-.036-1.4zM48.947 36.96A11.987 11.987 0 1 1 36.96 24.973 12 12 0 0 1 48.947 36.96zm-4 0a7.991 7.991 0 1 0-7.991 7.991 8 8 0 0 0 7.995-7.991zm69.934 5.991l1.986.012v16.532a41.462 41.462 0 0 1-27.284 38.862l-.683.243-.681-.246a41.462 41.462 0 0 1-27.286-38.859V42.963l1.986-.012a53.393 53.393 0 0 0 25.032-6.415l.953-.517.953.517a53.408 53.408 0 0 0 25.028 6.415zm-2.01 3.95A57.442 57.442 0 0 1 88.9 40.554 57.436 57.436 0 0 1 64.929 46.9v12.6A37.455 37.455 0 0 0 88.9 94.348 37.459 37.459 0 0 0 112.875 59.5zM84.906 66.1l15.982-15.982 8.818 8.818-24.8 24.8-12.813-12.814 8.818-8.822zm15.982-10.332L84.906 71.749l-4-4-3.168 3.168 7.164 7.164 19.151-19.151zm14.326-20.8h9.647v24.527A49.273 49.273 0 0 1 114.973 89l6.72 24.643-9.865-2.467-7.466 12.444-6.7-20.1a48.635 48.635 0 0 1-8.2 3.274l-.563.166-.563-.166a48.636 48.636 0 0 1-8.2-3.274l-6.7 20.1-7.466-12.444-9.865 2.467L62.831 89a49.456 49.456 0 0 1-9.479-23.534l-.921-.569a31.755 31.755 0 0 1-6.657 2.759l-1.239 5.264H29.384l-1.239-5.264a31.755 31.755 0 0 1-6.656-2.756l-4.6 2.849L6.174 57.031l2.849-4.6a31.755 31.755 0 0 1-2.759-6.657L1 44.535V29.384l5.264-1.239a31.755 31.755 0 0 1 2.759-6.657l-2.849-4.6L16.888 6.174l4.6 2.849a31.755 31.755 0 0 1 6.657-2.759L29.384 1h15.151l1.239 5.264a31.755 31.755 0 0 1 6.657 2.759l4.6-2.849 10.715 10.714-2.849 4.6a31.755 31.755 0 0 1 2.759 6.657l5.264 1.239v4.377a45.158 45.158 0 0 0 14.805-6.411l1.1-.733L90 27.3a45.237 45.237 0 0 0 25.216 7.663zM52.986 60.542c-.008-.35-.044-.7-.044-1.047V54.8a23.967 23.967 0 1 1 7.889-19.84h1.758a45.449 45.449 0 0 0 6.335-.453v-1.96l-4.541-1.069-.292-1.191a27.728 27.728 0 0 0-3.23-7.8l-.635-1.045 2.455-3.968-6.239-6.239-3.968 2.455-1.045-.635a27.728 27.728 0 0 0-7.8-3.23l-1.191-.292L41.371 5h-8.822L31.48 9.536l-1.191.292a27.728 27.728 0 0 0-7.8 3.23l-1.045.635-3.97-2.455-6.239 6.239 2.455 3.968-.635 1.045a27.728 27.728 0 0 0-3.23 7.8l-.292 1.191L5 32.549v8.822l4.536 1.069.292 1.191a27.728 27.728 0 0 0 3.23 7.8l.635 1.045-2.454 3.964 6.239 6.239 3.968-2.455 1.045.635a27.727 27.727 0 0 0 7.8 3.23l1.191.292 1.071 4.543h8.822l1.069-4.541 1.191-.292a27.728 27.728 0 0 0 7.8-3.23l1.045-.635zm3.85-25.579A20.027 20.027 0 1 0 52.942 48.9V34.962zm19.756 66.577a49.5 49.5 0 0 1-10.636-8.808l-4.193 15.379 6.117-1.528 4.521 7.534zm35.259-8.806a49.5 49.5 0 0 1-10.636 8.808l4.191 12.576 4.521-7.534 6.117 1.528zm9.016-53.776h-5.652A49.126 49.126 0 0 1 88.9 31.35a49.171 49.171 0 0 1-26.311 7.608h-5.651v20.537A45.573 45.573 0 0 0 88.9 102.8a45.573 45.573 0 0 0 31.964-43.3z" transform="translate(-1 -1)" fill="url(#a)"/></svg><svg height="511" viewBox="1 -1 511.99998 511" width="511" id="rising" y="6417"><path d="M79.297 300.793H13.23c-7.308 0-13.23 5.922-13.23 13.23v196.399h92.527V314.023c0-7.308-5.925-13.23-13.23-13.23zm0 0" fill="#49c3e0"/><path d="M44.137 300.793H13.23c-7.308 0-13.23 5.922-13.23 13.23v196.395h30.906V314.023c0-7.308 5.922-13.23 13.23-13.23zm0 0" fill="#00a5c6"/><path d="M219.121 248.98h-66.066c-7.309 0-13.23 5.922-13.23 13.23v248.212h92.527V262.21c0-7.309-5.926-13.23-13.23-13.23zm0 0" fill="#3ac7b4"/><path d="M183.96 248.98h-30.905c-7.309 0-13.23 5.922-13.23 13.23v248.212h30.905V262.21c0-7.309 5.922-13.23 13.23-13.23zm0 0" fill="#00ad94"/><path d="M358.945 197.168H292.88c-7.305 0-13.23 5.922-13.23 13.23v300.02h92.527v-300.02c0-7.308-5.922-13.23-13.23-13.23zm0 0" fill="#ffcd38"/><path d="M323.785 197.168H292.88c-7.305 0-13.23 5.926-13.23 13.23v300.024h30.906V210.398c0-7.308 5.925-13.23 13.23-13.23zm0 0" fill="#e7b835"/><path d="M498.77 145.355h-66.067c-7.305 0-13.226 5.922-13.226 13.23v351.833H512V158.586c0-7.309-5.922-13.23-13.23-13.23zm0 0" fill="#ff8c57"/><path d="M463.61 145.355h-30.907c-7.305 0-13.23 5.922-13.23 13.23v351.837h30.906V158.586c0-7.309 5.926-13.23 13.23-13.23zm0 0" fill="#ec6a34"/><path d="M488.207 3.465L404.617.504c-6.91-.242-11.14 7.504-7.195 13.187l13.484 19.407C365.508 60.297 220.234 136.762 22.332 136.762v55.515c134.11 0 244.898-33.214 314.223-61.078 50.718-20.387 87.082-40.785 106.093-52.398l11.957 17.215c3.946 5.68 12.684 4.421 14.868-2.141l26.406-79.363c1.77-5.32-2.07-10.848-7.672-11.047zm0 0" fill="#da5b65"/></svg><svg viewBox="0 0 512.001 512.001" width="512" height="512" id="salary" y="6928"><path fill="#1dd0a8" d="M64 466.391h438v35.61H64z"/><path fill="#b3ead8" d="M64 220.683h438V466.39H64z"/><path d="M130.976 430.781h303.899c0-17.347 14.063-31.409 31.409-31.409V287.703c-17.347 0-31.409-14.063-31.409-31.409H130.976c0 17.347-14.063 31.409-31.409 31.409v111.669c17.346 0 31.409 14.062 31.409 31.409z" fill="#1dd0a8"/><ellipse cx="282.625" cy="343.537" rx="43.266" ry="43.273" fill="#b3ead8"/><path fill="#ff6371" d="M377.648 10.001l-86.183 17.344 18.731 18.732-59.904 59.904-42.497-42.497L10.352 260.928l28.683 28.682 168.76-168.76 42.497 42.497 88.587-88.587 21.425 21.424z"/><path d="M38 446.001h128c15.464 0 28 12.536 28 28s-12.536 28-28 28H38c-15.464 0-28-12.536-28-28s12.536-28 28-28z" fill="#ffd89b"/><path d="M38 390.001h128c15.464 0 28 12.536 28 28s-12.536 28-28 28H38c-15.464 0-28-12.536-28-28s12.536-28 28-28z" fill="#ffbe52"/><path d="M38 334.001h128c15.464 0 28 12.536 28 28s-12.536 28-28 28H38c-15.464 0-28-12.536-28-28s12.536-28 28-28z" fill="#ffd89b"/><g><path d="M201.68 213.61a10.076 10.076 0 0 0-2.93 7.07c0 2.63 1.07 5.21 2.93 7.07 1.86 1.87 4.44 2.93 7.07 2.93s5.21-1.06 7.07-2.93c1.86-1.86 2.93-4.43 2.93-7.07 0-2.63-1.07-5.21-2.93-7.07s-4.44-2.93-7.07-2.93a10.08 10.08 0 0 0-7.07 2.93z"/><path d="M502 210.684H248.752c-5.523 0-10 4.477-10 10s4.477 10 10 10H492v225.707H199.658a38.225 38.225 0 0 0-7.998-10.39 38.384 38.384 0 0 0 4.736-5.22h238.479c5.523 0 10-4.477 10-10 0-11.805 9.604-21.409 21.41-21.409 5.523 0 10-4.477 10-10V287.703c0-5.523-4.477-10-10-10-11.805 0-21.41-9.604-21.41-21.41 0-5.523-4.477-10-10-10H130.976c-5.523 0-10 4.477-10 10 0 11.805-9.604 21.41-21.41 21.41-5.523 0-10 4.477-10 10v36.298H74v-55.213l38.103-38.103h56.649c5.523 0 10-4.477 10-10s-4.477-10-10-10h-36.649l75.692-75.692 35.425 35.426a10.001 10.001 0 0 0 14.142 0l81.516-81.516 14.353 14.354a10 10 0 1 0 16.874-5.098l17.345-86.184A9.999 9.999 0 0 0 375.674.199L289.49 17.543a10.002 10.002 0 0 0-5.099 16.875l11.66 11.661-45.762 45.762-35.425-35.426a10.001 10.001 0 0 0-14.142 0l-60.09 60.09c-3.905 3.905-3.905 10.237 0 14.143 3.905 3.905 10.237 3.905 14.143 0l53.019-53.019 35.425 35.426a10.001 10.001 0 0 0 14.142 0l59.904-59.904c3.905-3.905 3.905-10.236 0-14.142l-5.538-5.539 53.149-10.696-10.695 53.146-8.231-8.231a10.001 10.001 0 0 0-14.142 0l-81.516 81.516-35.425-35.426a10.001 10.001 0 0 0-14.142 0L39.035 275.468l-14.541-14.54 73.714-73.715c3.905-3.905 3.905-10.237 0-14.142s-10.237-3.904-14.142 0L3.281 253.857a10.001 10.001 0 0 0 0 14.142l28.683 28.682c1.953 1.953 4.512 2.929 7.071 2.929s5.119-.977 7.071-2.929L54 288.787V324H38c-20.953 0-38 17.047-38 38 0 11.071 4.761 21.048 12.341 28C4.762 396.952 0 406.93 0 418.001s4.761 21.048 12.341 28C4.762 452.952 0 462.93 0 474.001c0 20.953 17.047 38 38 38h464c5.523 0 10-4.477 10-10V220.684c0-5.523-4.477-10-10-10zm-392.434 85.798c14.815-3.687 26.502-15.374 30.189-30.189h286.34c3.687 14.815 15.374 26.502 30.189 30.189v94.11c-14.815 3.687-26.502 15.373-30.189 30.188H203.888c.067-.919.113-1.844.113-2.78 0-11.071-4.761-21.048-12.341-28 7.579-6.952 12.341-16.929 12.341-28 0-20.953-17.047-38-38-38h-56.434v-27.518zM20 362.001c0-9.925 8.075-18 18-18h128c9.925 0 18 8.075 18 18s-8.075 18-18 18H38c-9.925 0-18-8.075-18-18zm0 56c0-9.925 8.075-18 18-18h128c9.925 0 18 8.075 18 18s-8.075 18-18 18H38c-9.925 0-18-8.075-18-18zm44 74H38c-9.925 0-18-8.075-18-18s8.075-18 18-18h128c9.925 0 18 8.075 18 18s-8.075 18-18 18H64zm428 0H199.457a37.736 37.736 0 0 0 4.46-15.61H492v15.61z"/><path d="M381.712 353.537h14.244c5.523 0 10-4.477 10-10s-4.477-10-10-10h-14.244c-5.523 0-10 4.477-10 10s4.477 10 10 10zM282.624 396.81c29.371 0 53.266-23.898 53.266-53.273s-23.895-53.273-53.266-53.273-53.265 23.898-53.265 53.273 23.895 53.273 53.265 53.273zm0-86.546c18.343 0 33.266 14.926 33.266 33.273s-14.923 33.273-33.266 33.273c-18.342 0-33.265-14.926-33.265-33.273s14.923-33.273 33.265-33.273zM119.56 161.99c2.63 0 5.21-1.06 7.07-2.93 1.86-1.86 2.93-4.44 2.93-7.07s-1.07-5.21-2.93-7.07-4.44-2.93-7.07-2.93-5.21 1.07-7.07 2.93c-1.87 1.87-2.93 4.44-2.93 7.07s1.06 5.21 2.93 7.07c1.86 1.87 4.44 2.93 7.07 2.93z"/></g></svg><svg width="138" height="138" viewBox="0 0 138 138" id="search" y="7440"><defs><linearGradient id="a" x1=".5" y1="1" x2=".5" gradientUnits="objectBoundingBox"><stop offset="0" stop-color="#fc5b5b"/><stop offset="1" stop-color="#fba830"/></linearGradient></defs><path d="M90.032 1A48.918 48.918 0 0 0 42.1 59.917a31.041 31.041 0 0 0-20.086 43.795L1 124.724v.921A13.368 13.368 0 0 0 14.355 139h.921l21.012-21.012A31.041 31.041 0 0 0 80.083 97.9 48.963 48.963 0 1 0 90.032 1zM13.476 134.5a8.918 8.918 0 0 1-7.98-7.98l18.828-18.83a31.381 31.381 0 0 0 7.982 7.982zm36.492-17.762a26.71 26.71 0 1 1 26.71-26.71 26.739 26.739 0 0 1-26.71 26.714zm23.647-46.945l2.642-1.1 6.406 14.054 1.307-1.307-2.309 12.26c-.247-.047-.492-.114-.739-.165a31.863 31.863 0 0 0 .207-3.5 31 31 0 0 0-7.514-20.242zm38.676 2.433a14.347 14.347 0 0 1 8.456 9.885A44.391 44.391 0 0 1 98.4 93.667l-2.3-12.229 1.307 1.307 6.406-14.054zm-16.276 2.833l-2.835-2.833L98.8 66.6l.9.374zM78.9 42.567v-5.954h.381a17.288 17.288 0 0 0 10.748-3.706 17.288 17.288 0 0 0 10.748 3.706h.381v5.954a17.282 17.282 0 0 1-11.126 16.166A17.282 17.282 0 0 1 78.9 42.567zm21.877-10.406a12.89 12.89 0 0 1-9.175-3.8l-1.574-1.574-1.574 1.574a12.886 12.886 0 0 1-9.175 3.8h-4.827v10.406a21.726 21.726 0 0 0 1.83 8.718A15.531 15.531 0 0 1 70 38.839v-8.63a9.515 9.515 0 0 1 7.218-9.244l.6-.149 1.12-1.12a18.233 18.233 0 0 1 31.128 12.892v6.25a15.531 15.531 0 0 1-6.281 12.447 21.726 21.726 0 0 0 1.83-8.718V32.161zM89.329 63.209l.7.234.7-.234a21.849 21.849 0 0 0 3.851-1.729 6.607 6.607 0 0 0 .817 2.228l-5.371 5.371-5.371-5.371a6.624 6.624 0 0 0 .817-2.228 21.865 21.865 0 0 0 3.851 1.729zm-8.064 3.4l5.62 5.62-2.836 2.833-3.681-8.082zm4.812 27.682l3.472-18.432.483-.483.483.483 3.472 18.425c-1.307.118-2.62.2-3.955.2s-2.642-.08-3.955-.2zm38.146-15.857A18.755 18.755 0 0 0 114 68.119l-13.7-5.709a2.223 2.223 0 0 1-1.371-2.054v-2A20 20 0 0 0 114.51 38.84v-6.25a22.686 22.686 0 0 0-38.721-16.043l-.269.269a13.96 13.96 0 0 0-9.972 13.393v8.629a20 20 0 0 0 15.581 19.517v2a2.219 2.219 0 0 1-1.371 2.054l-9.549 3.98a30.778 30.778 0 0 0-23.74-7.31 44.516 44.516 0 1 1 77.754 19.351zm-74.255-10.66a22.258 22.258 0 1 0 22.258 22.258 22.283 22.283 0 0 0-22.258-22.258zm0 40.065a17.806 17.806 0 1 1 17.806-17.807 17.827 17.827 0 0 1-17.806 17.807zm-8.9-75.677V16.581A15.6 15.6 0 0 0 25.484 1h-8.9a15.581 15.581 0 0 0 0 31.161zM5.452 16.581A11.142 11.142 0 0 1 16.581 5.452h8.9a11.142 11.142 0 0 1 11.132 11.129V27.71H16.581A11.142 11.142 0 0 1 5.452 16.581zm8.9-2.226H9.9V9.9h4.452zm17.806 0H18.806V9.9h13.355zm0 8.9H9.9v-4.449h22.261zm91.258 80.129H90.032v15.581a15.6 15.6 0 0 0 15.581 15.581h17.806a15.581 15.581 0 1 0 0-31.161zm0 26.71h-17.803a11.142 11.142 0 0 1-11.129-11.129v-11.126h28.935a11.129 11.129 0 1 1 0 22.258zm0-17.806a6.677 6.677 0 1 0 6.677 6.677 6.686 6.686 0 0 0-6.674-6.675zm0 8.9a2.226 2.226 0 1 1 2.226-2.226 2.229 2.229 0 0 1-2.223 2.232zm-17.806-8.9a6.677 6.677 0 1 0 6.677 6.677 6.686 6.686 0 0 0-6.674-6.675zm0 8.9a2.226 2.226 0 1 1 2.226-2.226 2.229 2.229 0 0 1-2.223 2.232zM51.252 39.874l4.309 1.117a35.994 35.994 0 0 0-.81 4.107l-4.409-.6a39.1 39.1 0 0 1 .91-4.624zm3.421-8.763l3.926 2.1a35.54 35.54 0 0 0-1.752 3.8l-4.147-1.62a40.153 40.153 0 0 1 1.972-4.28zm-.254 18.866c0 1.155.056 2.33.169 3.486l-4.429.43a40.489 40.489 0 0 1-.191-3.924l.007-.772 4.452.078zm66.249-25.828a40.21 40.21 0 0 1 3.359 4.607l-3.775 2.359a35.584 35.584 0 0 0-2.985-4.1zM122.5 35.3l4.055-1.834a40.14 40.14 0 0 1-1.16 35.352l-3.926-2.1A35.7 35.7 0 0 0 122.5 35.3z" transform="translate(-1 -1)" fill="url(#a)"/></svg><svg height="512" viewBox="-81 0 512 512.00015" width="512" id="skills" y="7578"><path d="M294.996 10.004c-10.836 0 2.25-1.68-284.996 75V502h329.996V55.004c0-24.852-20.148-45-45-45zm0 0" fill="#f2f2f2"/><path d="M299.996 339v40H50v-40zm0 0" fill="#c8ec4b"/><path d="M240 296H120c0-33.137 26.86-59.996 60-59.996 33.137 0 60 26.86 60 59.996zm0 0M220 419v40H50v-40zm0 0" fill="#ff6c6c"/><path d="M220 176.004c0 22.09-17.91 40-40 40-22.094 0-40-17.91-40-40 0-22.094 17.906-40 40-40 22.09 0 40 17.906 40 40zm0 0" fill="#ffcebf"/><path d="M50 379h90v40H50zm0 0" fill="#ffda2d"/><path d="M230 176.004c0-27.57-22.43-50-50-50s-50 22.43-50 50 22.43 50 50 50 50-22.43 50-50zm-50 30c-16.543 0-30-13.461-30-30 0-16.543 13.457-30 30-30 16.54 0 30 13.457 30 30 0 16.539-13.46 30-30 30zm0 0M110 296c0 5.523 4.477 10 10 10h120c5.52 0 10-4.477 10-10 0-38.598-31.402-69.996-70-69.996S110 257.402 110 296zm70-49.996c24.145 0 44.348 17.203 48.992 39.996h-97.988c4.644-22.793 24.851-39.996 48.996-39.996zm0 0M230 459v-40c0-5.523-4.48-10-10-10h-70v-20h149.996c5.524 0 10-4.477 10-10v-40c0-5.52-4.476-10-10-10H50c-5.523 0-10 4.48-10 10v120c0 5.523 4.477 10 10 10h170c5.52 0 10-4.477 10-10zm-100-50H60v-20h70zm-70-60h229.996v20H60zm150 100H60v-20h150zm0 0M190 502c0 5.523-4.48 10-10 10-5.523 0-10-4.477-10-10s4.477-10 10-10c5.52 0 10 4.477 10 10zm0 0"/><path d="M10 512h125c5.52 0 10-4.477 10-10s-4.48-10-10-10H20V95.004h241.457c3.945 0 7.523-2.32 9.133-5.922a10.004 10.004 0 0 0-1.684-10.75 34.909 34.909 0 0 1-8.91-23.328c0-19.203 15.55-35 35-35 19.3 0 35 15.7 35 35V492H225c-5.523 0-10 4.477-10 10s4.477 10 10 10h114.996c5.524 0 10-4.477 10-10V55.004c0-30.328-24.672-55-55-55-13.816 0 2.285-1.895-287.594 75.344C2.937 76.555 0 80.656 0 85.004V502c0 5.523 4.477 10 10 10zM243.754 75.004H85.727l159.242-42.805A54.818 54.818 0 0 0 240 55.004c0 6.91 1.293 13.683 3.754 20zm0 0"/></svg><svg viewBox="0 0 512.005 512.005" width="512.005" height="512.005" id="slack" y="8090"><path d="M332.034 31.529c-7.776-23.936-33.504-37.056-57.472-29.28s-37.056 33.504-29.28 57.472l117.92 362.848c8.096 22.368 32.256 34.944 55.488 28.288 24.192-6.976 38.976-32.672 31.232-56.448-.288-.928-117.888-362.88-117.888-362.88z" fill="#ffc107"/><path d="M149.314 90.921c-7.808-23.968-33.536-37.088-57.472-29.28s-37.088 33.504-29.28 57.472l117.92 362.816c8.096 22.368 32.256 34.944 55.488 28.288 24.192-6.976 38.976-32.672 31.232-56.448-.288-.896-117.888-362.848-117.888-362.848z" fill="#4caf50"/><path d="M480.482 332.041c23.968-7.776 37.056-33.504 29.28-57.472s-33.504-37.056-57.472-29.28L89.442 363.241c-22.368 8.096-34.944 32.256-28.288 55.488 6.976 24.192 32.672 38.976 56.448 31.232.928-.32 362.88-117.92 362.88-117.92z" fill="#ec407a"/><path d="M165.058 434.537c23.616-7.68 54.048-17.568 86.72-28.192-7.68-23.616-17.568-54.048-28.192-86.72l-86.72 28.192 28.192 86.72z" fill="#472a49"/><path d="M347.81 375.145c32.8-10.656 63.264-20.544 86.72-28.192-7.68-23.616-17.568-54.08-28.192-86.752l-86.72 28.192 28.192 86.752z" fill="#cc2027"/><path d="M421.09 149.321c23.968-7.776 37.056-33.504 29.28-57.472s-33.504-37.056-57.472-29.28L30.082 180.489c-22.4 8.096-34.976 32.256-28.288 55.488 6.976 24.192 32.672 38.944 56.448 31.232.896-.288 362.848-117.888 362.848-117.888z" fill="#2196f3"/><path d="M105.666 251.785c23.616-7.68 54.08-17.568 86.752-28.192-10.656-32.768-20.544-63.232-28.192-86.72l-86.72 28.192 28.16 86.72z" fill="#1a937d"/><path d="M288.418 192.425c32.8-10.656 63.264-20.544 86.752-28.192-10.656-32.8-20.576-63.264-28.192-86.752l-86.752 28.192 28.192 86.752z" fill="#65863a"/></svg><svg viewBox="0 0 512 512" width="512" height="512" id="team" y="8603"><path d="M511.546 255.998c0 139.542-114.513 250.475-255.772 250.475S.001 395.54.001 255.998 114.515 3.335 255.774 3.335s255.772 113.122 255.772 252.663z" fill="#4982aa"/><g fill="#6cb8dd"><path d="M185.306 12.783c-54.203 15.584-101.09 48.62-134.161 92.609 18.243 7.116 40.146 13.152 64.607 17.924 6.76-20.136 15.067-38.911 24.832-55.852 13.143-22.796 28.254-41.16 44.722-54.681zM40.983 119.938C16.439 157.755 1.597 202.418.001 250.382h94.811c.701-38.874 6.134-76.371 15.823-110.514-26.521-5.267-50.194-11.981-69.652-19.93z"/></g><g fill="#b3dcf4"><path d="M471.012 119.93c-19.49 7.966-43.131 14.693-69.639 19.96 9.685 34.138 15.115 71.626 15.816 110.492H512c-1.597-47.968-16.44-92.633-40.988-130.452zM356.453 76.09c-25.128-43.591-57.457-69.086-91.819-72.756v132.468c40.569-.408 79.637-3.689 114.449-9.389-6.239-18.127-13.812-35.027-22.63-50.323z"/></g><path d="M417.193 267.652a470.785 470.785 0 0 1-.974 23.004 8.636 8.636 0 0 1-17.231-1.161c.486-7.209.792-14.526.931-21.845h-88.376a8.634 8.634 0 0 1-8.635-8.635 8.634 8.634 0 0 1 8.635-8.635h88.375c-.708-37.904-6.058-74.363-15.591-107.378-36.43 6.123-77.32 9.647-119.692 10.068v78.254a8.634 8.634 0 0 1-8.635 8.635 8.634 8.634 0 0 1-8.635-8.635V153.07c-42.273-.424-83.205-3.956-119.687-10.086-9.536 33.021-14.888 69.486-15.596 107.397h88.549a8.634 8.634 0 0 1 8.635 8.635 8.634 8.634 0 0 1-8.635 8.635h-88.549a456.42 456.42 0 0 0 .878 21.08 8.636 8.636 0 0 1-8.05 9.183c-4.756.304-8.87-3.293-9.183-8.051a470.346 470.346 0 0 1-.92-22.212H0c.691 20.841 3.879 41.289 9.419 60.982 32.785 104.342 130.267 180.03 245.431 180.03 136.614 0 250.833-108.779 256.698-241.014h-94.355v.003z" fill="#6cb8dd"/><path d="M326.695 12.783c16.468 13.521 31.58 31.885 44.722 54.683 9.769 16.947 18.077 35.727 24.839 55.872 24.448-4.773 46.351-10.809 64.607-17.936-33.074-43.994-79.962-77.034-134.168-92.619z" fill="#b3dcf4"/><path d="M247.365 3.335c-34.361 3.67-66.691 29.164-91.819 72.756-8.813 15.288-16.382 32.178-22.623 50.297 34.869 5.71 73.969 9.003 114.441 9.414l.001-132.467z" fill="#6cb8dd"/><g fill="#b3dcf4"><path d="M148.113 128.678c30.878 4.294 64.556 6.772 99.252 7.124V3.335c-20.862 2.228-40.972 12.516-59.178 30-19.605 28.072-33.517 60.408-40.074 95.343zM416.219 290.655a8.636 8.636 0 0 1-17.231-1.161c.486-7.209.792-14.526.931-21.845h-88.376a8.634 8.634 0 0 1-8.635-8.635 8.634 8.634 0 0 1 8.635-8.635h88.375c-.708-37.904-6.058-74.363-15.591-107.378-36.43 6.123-77.32 9.647-119.692 10.068v78.254a8.634 8.634 0 0 1-8.635 8.635 8.634 8.634 0 0 1-8.635-8.635V153.07c-35.509-.356-70.06-2.913-101.834-7.353a249.238 249.238 0 0 0-1.676 28.752c0 26.489 4.19 51.994 11.915 75.912h44.862a8.634 8.634 0 0 1 8.635 8.635 8.634 8.634 0 0 1-8.635 8.635h-38.56c36.771 90.109 125.257 153.623 228.589 153.623 22.337 0 44.086-2.509 64.665-8.072 33.47-39.604 52.814-90.784 56.221-145.551h-94.354a471.988 471.988 0 0 1-.974 23.004z"/></g><path d="M440.971 351.89l-.494.365c-.009-.012-.02-.023-.029-.033l.457-.332h.066zm-.491 0l-.112.23-.044-.054.091-.176h.065zm-132.117-41.108l-.624.463c-.012-.016-.025-.029-.036-.045l.578-.418h.082zm-.621 0l-.14.292c-.018-.023-.038-.045-.056-.069l.115-.223h.081zM144.08 351.89l-.495.365c-.008-.012-.02-.023-.028-.033l.457-.332h.066zm-.492 0l-.112.23-.044-.054.091-.176h.065z" fill="#edba89"/><path d="M459.386 355.867v-16.572c0-5.739-.872-11.278-2.487-16.492l-.087-.268c-.039-.123-.083-.245-.123-.367-7.524-21.543-27.394-28.53-40.555-30.776a8.633 8.633 0 0 1-9.11 7.3 8.498 8.498 0 0 1-1.078-.148V408.27h-14.608c.781 3.936.659 9.891.652 14.695-.009 7.173-3.091 9.414-4.03 11.859s-18.996 40.28-22.285 20.196c-1.97-12.026-8.362-21.139-13.174-26.52l-.091.037a56.51 56.51 0 0 0-2.994-3.139l-.084-.083a53.295 53.295 0 0 0-1.193-1.125 25.96 25.96 0 0 0-.593-.53l-.035-.029a48.241 48.241 0 0 0-1.943-1.66c-.077-.066-.158-.129-.239-.193-4.557-3.675-9.647-6.603-14.362-8.263l-41.697-16.711v-2.026c13.556-7.602 22.962-20.644 25.915-35.734a14.347 14.347 0 0 0 2.322-.522 26.003 26.003 0 0 0 5.929-2.706 14.64 14.64 0 0 0 3.008-2.451 14.564 14.564 0 0 0 2.939-2.546 26.287 26.287 0 0 0 6.482-14.878v-5.035a26.358 26.358 0 0 0-6.071-14.452v-19.656a114.3 114.3 0 0 1-.708-6.445c-.748-8.872-2.778-16.362-5.679-22.702h-11.865a8.634 8.634 0 0 1-8.635-8.635c0-4.557 3.531-8.28 8.006-8.604-16.131-14.768-38.203-16.987-46.483-17.279a9.158 9.158 0 0 1-.277 1.013V477.98h-87.741v-40.562l-14.058-5.606-.044.056-31.724-12.719c10.322-6.127 17.558-16.173 20.106-27.785.359-.078.712-.173 1.058-.283 1.74-.54 3.43-1.311 5.015-2.285a13.038 13.038 0 0 0 2.566-2.062 12.994 12.994 0 0 0 2.479-2.175 22.249 22.249 0 0 0 5.593-14.739c0-5.094-1.76-10.029-4.911-13.951v-16.574c0-2.655-.189-5.266-.549-7.823-5.149-33.423-35.718-39.73-49.068-40.881-.592 3.926-3.844 7.052-7.968 7.322a8.593 8.593 0 0 1-4.483-.936v160.159c43.005 32.342 96.467 51.527 154.421 51.527 74.799 0 142.132-31.93 189.126-82.902l-16.497-6.614c10.322-6.127 17.558-16.173 20.106-27.785.358-.078.712-.174 1.058-.283 1.74-.54 3.43-1.311 5.016-2.285a13.038 13.038 0 0 0 2.566-2.062 12.994 12.994 0 0 0 2.479-2.175 22.249 22.249 0 0 0 .687-28.69z" fill="#87bed5"/><path d="M482.072 477.376c0-.65-.018-1.285-.039-1.922-.006-.089-.005-.181-.01-.268-.012-.321-.039-.636-.06-.952-.024-.404-.041-.811-.075-1.21-.016-.163-.04-.326-.054-.492a47.222 47.222 0 0 0-.178-1.611c-.003-.045-.013-.089-.02-.134-1.449-10.838-6.384-18.754-11.931-24.148-.026-.026-.052-.049-.077-.075a41.86 41.86 0 0 0-.875-.825c-.145-.134-.291-.26-.438-.388a34.143 34.143 0 0 0-1.449-1.232c-3.557-2.878-7.12-4.75-9.913-5.716-.01-.002-.021-.01-.036-.014l-.071-.025c-.009-.001-.018-.006-.029-.009l-36.65-14.695-9.154 9.502-9.363 9.12-9.365-9.12-9.154-9.502-36.65 14.695c-.008.003-.02.008-.026.009l-.074.025c-.012.003-.025.012-.036.014-2.793.966-6.354 2.838-9.913 5.716-.03.024-.063.049-.09.074a32.434 32.434 0 0 0-1.358 1.158 37.353 37.353 0 0 0-1.313 1.213l-.078.075c-5.543 5.394-10.48 13.31-11.93 24.148-.006.045-.014.089-.021.134-.068.527-.121 1.068-.175 1.611-.014.165-.038.327-.051.492-.036.399-.055.806-.079 1.21-.02.317-.047.631-.06.952-.005.087-.003.18-.007.268a50.714 50.714 0 0 0-.041 1.922v5.826h.002v17.8c.237 2.778 1.676 7.663 8.861 7.663h143.122c7.184 0 8.618-4.885 8.861-7.663v-23.626h-.003z" fill="#6598cb"/><g fill="#4982aa"><path d="M367.123 499.591l.025-30.42a75.643 75.643 0 0 0-.071-3.085c-.014-.343-.036-.68-.061-1.019l-.04-.65a43.613 43.613 0 0 0-.089-1.336 15.41 15.41 0 0 0-.058-.536l-.017-.154a65.316 65.316 0 0 0-.243-2.207 8.677 8.677 0 0 0-.05-.355c-1.467-10.836-5.373-19.276-9.704-25.622l-10.337 4.145c-.008.003-.02.008-.026.009l-.074.025c-.012.003-.025.012-.036.014-2.793.966-6.354 2.838-9.913 5.716-.03.024-.063.049-.09.074a34.218 34.218 0 0 0-1.359 1.158 35.414 35.414 0 0 0-1.313 1.214l-.078.075c-5.543 5.394-10.48 13.31-11.93 24.148-.006.045-.014.089-.021.134-.068.527-.121 1.068-.175 1.611-.014.165-.038.327-.051.492-.036.399-.055.806-.079 1.21-.02.317-.047.631-.06.952-.005.087-.003.18-.007.268a50.706 50.706 0 0 0-.041 1.921v5.826h.002v17.8c.237 2.778 1.676 7.663 8.861 7.663h33.823c1.921-2.721 2.938-5.935 3.212-9.071z"/><path d="M382.956 424.072l-36.462 14.278-.113.038c-9.339 3.334-25.153 15.295-25.153 38.986V501c.237 2.778 1.676 7.663 8.861 7.663h1.843v-31.29c0-23.691 15.814-35.653 25.157-38.986l.113-.038 28.82-11.286-3.066-2.991z"/></g><path d="M403.537 290.353h-3.954c-26.986 0-48.94 21.956-48.94 48.942v22.961s11.142-1.106 12.511-6.509l-.007-.005a6.166 6.166 0 0 0 1.144-1.745c6.318-.193 35.843-.421 52.705-20.785 2.011 5.885 8.818 17.032 21.916 20.541a6.22 6.22 0 0 0 1.158 1.905l-.108.087c1.37 5.403 12.514 6.509 12.514 6.509V339.293c.003-26.983-21.955-48.94-48.939-48.94zm36.898 61.879l.472-.342h.066l-.768.569.23-.227zm-.241.145l.054-.163.167-.324h.064l-.196.404-.089.083zm-1.295 1.005l-.018-.026 1.207-.874-.285.276-.882.652-.022-.028zm.994-.283l-.378.782-.006-.001-.052-.024c-.009-.005-.021-.01-.026-.016l.618-1.224.015-.016-.171.499z" fill="#694b4b"/><path d="M359.27 351.934v-12.639c0-26.203 20.7-47.658 46.604-48.881a49.095 49.095 0 0 0-2.338-.061h-3.954c-26.986 0-48.94 21.956-48.94 48.942v22.961s4.923-.492 8.627-2.405v-7.917h.001z" fill="#563b3b"/><path d="M446.601 355.161a6.167 6.167 0 0 0-5.489.914 6.173 6.173 0 0 0-2.509 4.965v17.562a6.16 6.16 0 0 0 7.994 5.88 15.18 15.18 0 0 0 3.45-1.577 6.199 6.199 0 0 0 1.685-1.527 6.208 6.208 0 0 0 1.796-1.395 15.345 15.345 0 0 0 3.863-10.164 15.288 15.288 0 0 0-10.79-14.658z" fill="#fbcb99"/><path d="M362.187 356.075a6.17 6.17 0 0 0-5.486-.916 15.292 15.292 0 0 0-10.79 14.66 15.293 15.293 0 0 0 10.79 14.663 6.161 6.161 0 0 0 7.998-5.88V361.04a6.17 6.17 0 0 0-2.512-4.965z" fill="#edba89"/><path d="M418.473 409.211a6.194 6.194 0 0 0-4.525-1.704l-.212.012a6.194 6.194 0 0 0-1.116.14c-2.381.53-4.807.798-7.205.798h-7.532c-2.471 0-4.965-.282-7.42-.843a6.134 6.134 0 0 0-5.213 1.181 6.168 6.168 0 0 0-2.327 4.822v17.924l-.002.06a6.167 6.167 0 0 0 1.852 4.756l12.381 12.06a6.154 6.154 0 0 0 4.3 1.748h.098a6.176 6.176 0 0 0 4.34-1.887l12.754-13.242a6.144 6.144 0 0 0 1.723-4.272v-17.098a6.146 6.146 0 0 0-1.896-4.455z" fill="#fbcb99"/><path d="M402.703 446.566l-12.38-12.06a6.163 6.163 0 0 1-1.854-4.756l.006-.06v-17.926c0-1.576.607-3.076 1.673-4.21a6.163 6.163 0 0 0-4.896 1.24 6.168 6.168 0 0 0-2.327 4.822v17.924l-.002.06a6.167 6.167 0 0 0 1.852 4.756l12.381 12.06a6.154 6.154 0 0 0 4.3 1.748h.098a6.176 6.176 0 0 0 4.34-1.887l.052-.058a6.153 6.153 0 0 1-3.243-1.653z" fill="#edba89"/><path d="M437.674 350.129a21.231 21.231 0 0 1-2.134-.944c-10.355-4.831-14.652-11.113-16.38-14.864a3.815 3.815 0 0 1-.314-.493c-1.239-2.276-3.167-.836-3.167-.836l-.005-.005c-9.671 7.418-20.233 11.753-29.015 14.277a90.493 90.493 0 0 1-9.654 2.273c-5.885 1.08-9.67 1.222-9.67 1.222a6.166 6.166 0 0 0-5.721 6.148v25.145c0 19.996 16.271 36.267 36.27 36.267h7.533c19.996 0 36.267-16.271 36.267-36.267v-26.148a6.157 6.157 0 0 0-4.01-5.775z" fill="#fbcb99"/><path d="M369.01 382.051v-25.145a6.163 6.163 0 0 1 5.716-6.148s3.788-.142 9.671-1.221a90.637 90.637 0 0 0 9.66-2.273c7.767-2.235 16.934-5.892 25.645-11.848a19.854 19.854 0 0 1-.545-1.097 3.815 3.815 0 0 1-.314-.493c-1.239-2.276-3.167-.836-3.167-.836l-.005-.005c-9.671 7.418-20.233 11.753-29.015 14.277a90.493 90.493 0 0 1-9.654 2.273c-5.885 1.08-9.67 1.221-9.67 1.221a6.166 6.166 0 0 0-5.721 6.148v25.145c0 19.996 16.271 36.267 36.27 36.267h7.39c-19.992.002-36.261-16.269-36.261-36.265z" fill="#edba89"/><path d="M185.182 477.376c0-.65-.018-1.285-.039-1.922-.006-.089-.005-.181-.01-.268-.012-.321-.039-.636-.06-.952-.024-.404-.041-.811-.075-1.21-.016-.163-.04-.326-.054-.492a47.222 47.222 0 0 0-.178-1.611c-.003-.045-.013-.089-.02-.134-1.449-10.838-6.384-18.754-11.931-24.148-.025-.026-.052-.049-.077-.075a41.86 41.86 0 0 0-.875-.825c-.145-.134-.291-.26-.438-.388a34.143 34.143 0 0 0-1.449-1.232c-3.557-2.878-7.12-4.75-9.913-5.716-.01-.002-.022-.01-.036-.014l-.07-.025c-.009-.001-.018-.006-.029-.009l-36.65-14.695-9.154 9.502-9.363 9.12-9.365-9.12-9.154-9.502-36.65 14.695c-.008.003-.02.008-.026.009l-.073.025c-.012.003-.024.012-.036.014-2.793.966-6.353 2.838-9.913 5.716-.03.024-.063.049-.09.074a32.434 32.434 0 0 0-1.358 1.158 37.353 37.353 0 0 0-1.313 1.213c-.028.025-.05.048-.078.075-5.543 5.394-10.48 13.31-11.93 24.148-.006.045-.014.089-.021.134a52.603 52.603 0 0 0-.175 1.611c-.014.165-.038.327-.051.492-.036.399-.055.806-.079 1.21-.02.317-.047.631-.06.952-.005.087-.003.18-.007.268a50.714 50.714 0 0 0-.041 1.922v5.826h.002v17.8c.237 2.778 1.676 7.663 8.861 7.663h143.121c7.184 0 8.619-4.885 8.861-7.663v-23.626h-.004z" fill="#6598cb"/><path d="M86.064 424.072L49.602 438.35l-.113.038c-9.339 3.334-25.153 15.295-25.153 38.986V501c.237 2.778 1.676 7.663 8.861 7.663h1.843v-31.29c0-23.691 15.814-35.653 25.157-38.986l.113-.038 28.82-11.286-3.066-2.991z" fill="#4982aa"/><path d="M106.646 290.353h-3.954c-26.986 0-48.94 21.956-48.94 48.942v22.961s11.142-1.106 12.511-6.509l-.007-.005a6.166 6.166 0 0 0 1.144-1.745c6.318-.193 35.843-.421 52.705-20.785 2.011 5.885 8.818 17.032 21.916 20.541a6.2 6.2 0 0 0 1.158 1.905l-.108.087c1.37 5.403 12.514 6.509 12.514 6.509V339.293c.003-26.983-21.955-48.94-48.939-48.94zm36.898 61.879l.472-.342h.066l-.768.569.23-.227zm-.24.145l.054-.163.167-.324h.064l-.196.404-.089.083zm-1.296 1.005l-.018-.026 1.207-.874-.286.276-.882.652-.021-.028zm.993-.283l-.378.782-.006-.001-.052-.024c-.009-.005-.021-.01-.026-.016l.618-1.224.015-.016-.171.499z" fill="#694b4b"/><path d="M62.38 351.934v-12.639c0-26.203 20.7-47.658 46.604-48.881a49.06 49.06 0 0 0-2.338-.061h-3.954c-26.986 0-48.94 21.956-48.94 48.942v22.961s4.923-.492 8.627-2.405v-7.917h.001z" fill="#563b3b"/><path d="M149.71 355.161a6.167 6.167 0 0 0-5.489.914 6.173 6.173 0 0 0-2.509 4.965v17.562a6.16 6.16 0 0 0 7.994 5.88 15.18 15.18 0 0 0 3.45-1.577 6.155 6.155 0 0 0 1.685-1.527 6.208 6.208 0 0 0 1.796-1.395 15.345 15.345 0 0 0 3.863-10.164 15.287 15.287 0 0 0-10.79-14.658z" fill="#fbcb99"/><path d="M65.295 356.075a6.17 6.17 0 0 0-5.486-.916 15.293 15.293 0 0 0-10.79 14.66 15.293 15.293 0 0 0 10.79 14.663 6.161 6.161 0 0 0 7.998-5.88V361.04a6.167 6.167 0 0 0-2.512-4.965z" fill="#edba89"/><path d="M121.582 409.211a6.194 6.194 0 0 0-4.525-1.704l-.212.012a6.194 6.194 0 0 0-1.116.14c-2.381.53-4.807.798-7.205.798h-7.533c-2.471 0-4.964-.282-7.42-.843a6.134 6.134 0 0 0-5.213 1.181 6.168 6.168 0 0 0-2.327 4.822v17.924l-.002.06a6.167 6.167 0 0 0 1.852 4.756l12.381 12.06a6.154 6.154 0 0 0 4.3 1.748h.098a6.172 6.172 0 0 0 4.339-1.887l12.754-13.242a6.144 6.144 0 0 0 1.723-4.272v-17.098a6.144 6.144 0 0 0-1.894-4.455z" fill="#fbcb99"/><path d="M105.811 446.566l-12.38-12.06a6.163 6.163 0 0 1-1.854-4.756l.006-.06v-17.926c0-1.576.607-3.076 1.673-4.21a6.163 6.163 0 0 0-4.896 1.24 6.168 6.168 0 0 0-2.327 4.822v17.924l-.002.06a6.167 6.167 0 0 0 1.852 4.756l12.381 12.06a6.154 6.154 0 0 0 4.3 1.748h.098a6.172 6.172 0 0 0 4.339-1.887l.052-.058a6.16 6.16 0 0 1-3.242-1.653z" fill="#edba89"/><path d="M140.783 350.129a21.332 21.332 0 0 1-2.134-.944c-10.355-4.831-14.651-11.113-16.381-14.864a3.712 3.712 0 0 1-.313-.493c-1.239-2.276-3.167-.836-3.167-.836l-.005-.005c-9.671 7.418-20.233 11.753-29.015 14.277a90.436 90.436 0 0 1-9.654 2.273c-5.885 1.08-9.67 1.222-9.67 1.222a6.166 6.166 0 0 0-5.721 6.148v25.145c0 19.996 16.271 36.267 36.27 36.267h7.533c19.996 0 36.267-16.271 36.267-36.267v-26.148a6.157 6.157 0 0 0-4.01-5.775z" fill="#fbcb99"/><path d="M72.119 382.051v-25.145a6.163 6.163 0 0 1 5.716-6.148s3.788-.142 9.671-1.221a90.637 90.637 0 0 0 9.66-2.273c7.767-2.235 16.934-5.892 25.645-11.848a19.854 19.854 0 0 1-.545-1.097 3.712 3.712 0 0 1-.313-.493c-1.239-2.276-3.167-.836-3.167-.836l-.005-.005c-9.671 7.418-20.233 11.753-29.015 14.277a90.436 90.436 0 0 1-9.654 2.273c-5.885 1.08-9.67 1.221-9.67 1.221a6.166 6.166 0 0 0-5.721 6.148v25.145c0 19.996 16.271 36.267 36.27 36.267h7.39c-19.993.002-36.262-16.269-36.262-36.265z" fill="#edba89"/><path d="M360.241 469.172c0-.821-.023-1.622-.051-2.425-.006-.113-.005-.228-.013-.34-.014-.406-.048-.801-.074-1.202-.03-.509-.054-1.025-.097-1.527-.018-.208-.049-.412-.068-.621a58.021 58.021 0 0 0-.224-2.034c-.005-.056-.016-.113-.024-.169-1.829-13.681-8.057-23.672-15.059-30.479-.032-.035-.066-.064-.098-.097a52.981 52.981 0 0 0-1.104-1.04c-.183-.172-.367-.328-.551-.49a37.46 37.46 0 0 0-1.834-1.556c-4.489-3.631-8.985-5.995-12.511-7.215-.013-.003-.028-.013-.045-.016l-.091-.033c-.012-.002-.022-.007-.036-.012l-46.26-18.547-11.555 11.993-11.818 11.512-11.82-11.512-11.554-11.993-46.261 18.547c-.009.005-.023.009-.032.012l-.093.033c-.014.003-.031.013-.045.016-3.525 1.22-8.021 3.583-12.513 7.215-.037.031-.079.063-.113.096a39.51 39.51 0 0 0-1.071.892c-.218.183-.434.374-.646.568-.187.162-.37.319-.551.49a48.43 48.43 0 0 0-1.105 1.04c-.035.032-.063.062-.099.097-6.999 6.806-13.228 16.798-15.059 30.479a9.86 9.86 0 0 1-.026.169 66.29 66.29 0 0 0-.221 2.034c-.017.208-.048.412-.064.621-.045.503-.069 1.018-.1 1.527-.025.401-.06.796-.076 1.202-.005.112-.003.227-.008.34a66.706 66.706 0 0 0-.052 2.425v7.353h.002v22.467c.299 3.508 2.115 9.673 11.185 9.673H349.058c9.066 0 10.879-6.165 11.185-9.673v-29.82h-.002z" fill="#6598cb"/><path d="M360.241 469.172c0-.821-.023-1.622-.051-2.425-.006-.113-.005-.228-.013-.34-.014-.406-.048-.801-.074-1.202-.03-.509-.054-1.025-.097-1.527-.018-.208-.049-.412-.068-.621a58.021 58.021 0 0 0-.224-2.034c-.005-.056-.016-.113-.024-.169-1.829-13.681-8.057-23.672-15.059-30.479-.032-.035-.066-.064-.098-.097a52.981 52.981 0 0 0-1.104-1.04c-.183-.172-.367-.328-.551-.49a37.46 37.46 0 0 0-1.834-1.556c-4.489-3.631-8.985-5.995-12.511-7.215-.013-.003-.028-.013-.045-.016l-.091-.033c-.012-.002-.022-.007-.036-.012l-46.26-18.547-11.555 11.993-11.818 11.512-11.82-11.512-11.554-11.993-46.261 18.547c-.009.005-.023.009-.032.012l-.093.033c-.014.003-.031.013-.045.016-3.525 1.22-8.021 3.583-12.513 7.215-.037.031-.079.063-.113.096a39.51 39.51 0 0 0-1.071.892c-.218.183-.434.374-.646.568-.187.162-.37.319-.551.49a48.43 48.43 0 0 0-1.105 1.04c-.035.032-.063.062-.099.097-6.999 6.806-13.228 16.798-15.059 30.479a9.86 9.86 0 0 1-.026.169 66.29 66.29 0 0 0-.221 2.034c-.017.208-.048.412-.064.621-.045.503-.069 1.018-.1 1.527-.025.401-.06.796-.076 1.202-.005.112-.003.227-.008.34a66.706 66.706 0 0 0-.052 2.425v7.353h.002v22.467c.299 3.508 2.115 9.673 11.185 9.673H349.058c9.066 0 10.879-6.165 11.185-9.673v-29.82h-.002z" fill="#6598cb"/><path d="M235.133 401.89l-46.022 18.022-.143.05c-11.789 4.206-31.748 19.306-31.748 49.208v29.819c.299 3.508 2.115 9.673 11.185 9.673h2.327v-39.491c0-29.904 19.961-45.003 31.751-49.208l.143-.05 36.376-14.244-3.869-3.779z" fill="#4982aa"/><path d="M261.112 233.111h-4.989c-34.062 0-61.772 27.713-61.772 61.775v28.98s14.064-1.397 15.792-8.217l-.009-.006a7.845 7.845 0 0 0 1.445-2.204c7.977-.243 45.242-.532 66.525-26.234 2.539 7.429 11.131 21.498 27.663 25.927a7.791 7.791 0 0 0 1.462 2.406l-.136.112c1.729 6.82 15.796 8.217 15.796 8.217v-28.979c-.002-34.065-27.716-61.777-61.777-61.777zm46.573 78.103l.596-.432h.082l-.967.717.289-.285zm-.302.184l.067-.207.211-.408h.082l-.246.511-.114.104zm-1.637 1.269l-.024-.033 1.522-1.102-.359.349-1.113.823-.026-.037zm1.255-.358l-.477.987-.008-.002-.067-.03c-.012-.006-.023-.015-.033-.021l.781-1.544.02-.02-.216.63z" fill="#694b4b"/><path d="M205.24 310.836v-15.951c0-33.074 26.127-60.154 58.825-61.7a61.606 61.606 0 0 0-2.952-.075h-4.989c-34.062 0-61.772 27.713-61.772 61.775v28.98s6.215-.619 10.889-3.037v-9.992h-.001z" fill="#563b3b"/><path d="M315.467 314.91a7.779 7.779 0 0 0-6.926 1.155 7.796 7.796 0 0 0-3.168 6.269V344.5a7.772 7.772 0 0 0 7.778 7.774c.776 0 1.558-.115 2.312-.353a19.134 19.134 0 0 0 4.355-1.991 7.788 7.788 0 0 0 2.126-1.927 7.804 7.804 0 0 0 2.267-1.763 19.358 19.358 0 0 0 4.876-12.829c0-8.527-5.473-15.963-13.62-18.501z" fill="#fbcb99"/><path d="M208.919 316.064a7.788 7.788 0 0 0-6.924-1.156c-8.143 2.54-13.62 9.976-13.62 18.503 0 8.533 5.477 15.97 13.62 18.508a7.767 7.767 0 0 0 6.923-1.159 7.775 7.775 0 0 0 3.171-6.262v-22.167a7.782 7.782 0 0 0-3.17-6.267z" fill="#edba89"/><path d="M279.966 383.133a7.816 7.816 0 0 0-5.712-2.151l-.267.014a7.673 7.673 0 0 0-1.407.178 42.004 42.004 0 0 1-9.093 1.006h-9.508a42.1 42.1 0 0 1-9.366-1.064 7.746 7.746 0 0 0-6.582 1.491 7.78 7.78 0 0 0-2.935 6.085v22.625l-.003.076a7.79 7.79 0 0 0 2.337 6.003l15.629 15.223a7.771 7.771 0 0 0 5.427 2.202h.123a7.79 7.79 0 0 0 5.477-2.38l16.098-16.714a7.754 7.754 0 0 0 2.177-5.391v-21.582a7.77 7.77 0 0 0-2.395-5.621z" fill="#fbcb99"/><path d="M260.061 430.283l-15.628-15.222a7.772 7.772 0 0 1-2.339-6.003l.009-.076v-22.624a7.76 7.76 0 0 1 2.111-5.315 7.785 7.785 0 0 0-6.181 1.565 7.779 7.779 0 0 0-2.935 6.085v22.625l-.003.076a7.79 7.79 0 0 0 2.337 6.003l15.629 15.223a7.771 7.771 0 0 0 5.427 2.202h.123a7.79 7.79 0 0 0 5.477-2.38l.067-.073a7.766 7.766 0 0 1-4.094-2.086z" fill="#edba89"/><path d="M304.202 308.56a26.362 26.362 0 0 1-2.695-1.193c-13.071-6.098-18.493-14.027-20.677-18.763a4.893 4.893 0 0 1-.394-.622c-1.565-2.871-3.998-1.053-3.998-1.053l-.007-.007c-12.208 9.363-25.538 14.838-36.624 18.021a113.666 113.666 0 0 1-12.183 2.867c-7.429 1.364-12.206 1.542-12.206 1.542a7.784 7.784 0 0 0-7.22 7.762v31.736c0 25.241 20.536 45.776 45.78 45.776h9.508c25.238 0 45.776-20.535 45.776-45.776v-33.004a7.774 7.774 0 0 0-5.06-7.286z" fill="#fbcb99"/><path d="M217.533 348.852v-31.736a7.781 7.781 0 0 1 7.216-7.762s4.779-.176 12.207-1.542a113.853 113.853 0 0 0 12.192-2.867c9.804-2.82 21.375-7.436 32.37-14.954a26.058 26.058 0 0 1-.688-1.385 4.893 4.893 0 0 1-.394-.622c-1.565-2.871-3.998-1.053-3.998-1.053l-.007-.007c-12.208 9.363-25.538 14.838-36.624 18.021a113.666 113.666 0 0 1-12.183 2.867c-7.429 1.364-12.206 1.542-12.206 1.542a7.784 7.784 0 0 0-7.22 7.762v31.736c0 25.241 20.536 45.776 45.78 45.776h9.328c-25.237 0-45.773-20.535-45.773-45.776z" fill="#edba89"/></svg><svg width="124.52" height="124.923" viewBox="0 0 124.52 124.923" id="test" y="9115"><defs><linearGradient id="a" x1=".5" y1="1" x2=".5" gradientUnits="objectBoundingBox"><stop offset="0" stop-color="#fc5b5b"/><stop offset="1" stop-color="#fba830"/></linearGradient></defs><path d="M103.557 60.1l13.7 18.269-3.224 2.418-8.463-11.283v46.343a10.086 10.086 0 0 1-10.07 10.076H22.961a10.086 10.086 0 0 1-10.074-10.074V65.477h4.03v50.372a6.052 6.052 0 0 0 6.045 6.045H95.5a6.052 6.052 0 0 0 6.045-6.045V69.506L93.079 80.79l-3.224-2.418zm22.164-42.5a10.5 10.5 0 0 1-3.093 7.469l-17.057 17.063V55.4h-4.03v-9.24L80.329 67.375 62.9 69.865l2.49-17.429 36.151-36.151v-5.211A6.052 6.052 0 0 0 95.5 5.03H22.961a6.052 6.052 0 0 0-6.045 6.045v40.3l8.463-11.281 3.221 2.413-13.7 18.269L1.2 42.507l3.224-2.418 8.463 11.283v-40.3A10.086 10.086 0 0 1 22.961 1H95.5a10.086 10.086 0 0 1 10.074 10.074v1.181l2.118-2.118a10.563 10.563 0 0 1 18.031 7.469zM79.378 62.627L112.8 29.208l-3.2-3.2-33.418 33.424zm27.374-39.464l-3.2-3.2-33.414 33.424 3.2 3.2zm-39.1 41.952l7.448-1.063-6.391-6.391zm54.041-47.509a6.534 6.534 0 0 0-11.152-4.62l-4.133 4.133 9.24 9.24 4.133-4.133a6.493 6.493 0 0 0 1.912-4.62zM20.946 95.7a6.052 6.052 0 0 1 6.045-6.045H55.2a6.052 6.052 0 0 1 6.044 6.045v16.119a6.052 6.052 0 0 1-6.045 6.045H26.991a6.052 6.052 0 0 1-6.045-6.045zm4.03 16.119a2.016 2.016 0 0 0 2.015 2.015H55.2a2.016 2.016 0 0 0 2.015-2.015V95.7a2.016 2.016 0 0 0-2.015-2.015H26.991a2.016 2.016 0 0 0-2.015 2.015zm2.015-54.4H55.2a6.052 6.052 0 0 1 6.045 6.045v16.117a6.052 6.052 0 0 1-6.045 6.044H26.991a6.052 6.052 0 0 1-6.045-6.045V63.462a6.052 6.052 0 0 1 6.045-6.045zM55.2 61.447H26.991a2.016 2.016 0 0 0-2.015 2.015v16.119a2.016 2.016 0 0 0 2.015 2.019H55.2a2.016 2.016 0 0 0 2.015-2.015V63.462a2.016 2.016 0 0 0-2.015-2.015zm10.074 56.417h32.238v-4.03H65.274zm32.238-8.06v-4.03h-4.03v4.03zm-32.238 0h24.178v-4.03H65.274zm0-8.06h32.238v-4.03H65.274zm0-8.06h32.238v-4.03H65.274zm0-8.06h20.148V81.6H65.274zm20.148-12.088H65.274v4.03h20.148zM20.946 9.06v4.03h4.03V9.06zm8.06 0v4.03h4.03V9.06zm8.06 0v4.03h4.03V9.06zm-16.12 12.089h52.387v-4.03H20.946zm52.387 8.06v-4.03H69.3v4.03zm-52.387 0h44.328v-4.03H20.946zm0 8.06h52.387v-4.03H20.946zM37.065 41.3h-4.03v4.03h4.03zm8.06 4.03V41.3h-4.03v4.03zm8.06 0V41.3h-4.03v4.03z" transform="translate(-1.2 -1)" fill="url(#a)"/></svg><svg width="612" height="612" viewBox="0 0 612 612" id="twitter" y="9240"><path d="M437.219 245.162c0-3.088-.056-6.148-.195-9.18 13.214-9.848 24.675-22.171 33.744-36.275a129.554 129.554 0 0 1-38.835 10.626c13.965-8.596 24.675-22.338 29.738-38.834-13.075 7.928-27.54 13.603-42.924 16.552-12.323-14.021-29.904-22.95-49.35-23.284-37.332-.612-67.598 30.934-67.598 70.463 0 5.619.584 11.072 1.752 16.329-56.22-3.616-106.042-32.881-139.369-77-5.814 10.571-9.152 22.922-9.152 36.164 0 25.037 11.934 47.291 30.071 60.421-11.099-.5-21.503-3.866-30.627-9.375v.918c0 34.996 23.312 64.316 54.245 71.159a64.033 64.033 0 0 1-17.804 2.421 61.759 61.759 0 0 1-12.713-1.392c8.596 28.681 33.577 49.628 63.147 50.323-23.145 19.194-52.298 30.655-83.955 30.572-5.453 0-10.849-.361-16.135-1.029 29.933 20.53 65.456 32.491 103.65 32.491 124.321.029 192.31-108.184 192.31-202.07z"/><path d="M612 306C612 137.004 474.995 0 306 0 137.004 0 0 137.004 0 306c0 168.995 137.004 306 306 306 168.995 0 306-137.005 306-306zm-584.182 0C27.818 152.36 152.36 27.818 306 27.818S584.182 152.36 584.182 306 459.64 584.182 306 584.182 27.818 459.64 27.818 306z"/></svg></svg>